%TF.GenerationSoftware,KiCad,Pcbnew,(6.0.2)*%
%TF.CreationDate,2022-05-06T08:02:59-03:00*%
%TF.ProjectId,Nono_Circuito_SMD,4e6f6e6f-5f43-4697-9263-7569746f5f53,rev?*%
%TF.SameCoordinates,Original*%
%TF.FileFunction,Copper,L1,Top*%
%TF.FilePolarity,Positive*%
%FSLAX46Y46*%
G04 Gerber Fmt 4.6, Leading zero omitted, Abs format (unit mm)*
G04 Created by KiCad (PCBNEW (6.0.2)) date 2022-05-06 08:02:59*
%MOMM*%
%LPD*%
G01*
G04 APERTURE LIST*
G04 Aperture macros list*
%AMRoundRect*
0 Rectangle with rounded corners*
0 $1 Rounding radius*
0 $2 $3 $4 $5 $6 $7 $8 $9 X,Y pos of 4 corners*
0 Add a 4 corners polygon primitive as box body*
4,1,4,$2,$3,$4,$5,$6,$7,$8,$9,$2,$3,0*
0 Add four circle primitives for the rounded corners*
1,1,$1+$1,$2,$3*
1,1,$1+$1,$4,$5*
1,1,$1+$1,$6,$7*
1,1,$1+$1,$8,$9*
0 Add four rect primitives between the rounded corners*
20,1,$1+$1,$2,$3,$4,$5,0*
20,1,$1+$1,$4,$5,$6,$7,0*
20,1,$1+$1,$6,$7,$8,$9,0*
20,1,$1+$1,$8,$9,$2,$3,0*%
G04 Aperture macros list end*
%TA.AperFunction,SMDPad,CuDef*%
%ADD10RoundRect,0.250000X0.450000X-0.262500X0.450000X0.262500X-0.450000X0.262500X-0.450000X-0.262500X0*%
%TD*%
%TA.AperFunction,SMDPad,CuDef*%
%ADD11RoundRect,0.250000X-0.262500X-0.450000X0.262500X-0.450000X0.262500X0.450000X-0.262500X0.450000X0*%
%TD*%
%TA.AperFunction,SMDPad,CuDef*%
%ADD12RoundRect,0.100000X0.100000X-0.637500X0.100000X0.637500X-0.100000X0.637500X-0.100000X-0.637500X0*%
%TD*%
%TA.AperFunction,SMDPad,CuDef*%
%ADD13RoundRect,0.250000X-0.250000X-0.475000X0.250000X-0.475000X0.250000X0.475000X-0.250000X0.475000X0*%
%TD*%
%TA.AperFunction,ComponentPad*%
%ADD14R,1.350000X1.350000*%
%TD*%
%TA.AperFunction,ComponentPad*%
%ADD15O,1.350000X1.350000*%
%TD*%
%TA.AperFunction,SMDPad,CuDef*%
%ADD16RoundRect,0.250000X0.250000X0.475000X-0.250000X0.475000X-0.250000X-0.475000X0.250000X-0.475000X0*%
%TD*%
%TA.AperFunction,SMDPad,CuDef*%
%ADD17RoundRect,0.250000X0.262500X0.450000X-0.262500X0.450000X-0.262500X-0.450000X0.262500X-0.450000X0*%
%TD*%
%TA.AperFunction,ViaPad*%
%ADD18C,0.800000*%
%TD*%
%TA.AperFunction,Conductor*%
%ADD19C,0.250000*%
%TD*%
%TA.AperFunction,Conductor*%
%ADD20C,0.200000*%
%TD*%
G04 APERTURE END LIST*
D10*
%TO.P,R5,1*%
%TO.N,Net-(C1-Pad2)*%
X101600000Y-108862500D03*
%TO.P,R5,2*%
%TO.N,Net-(C3-Pad1)*%
X101600000Y-107037500D03*
%TD*%
D11*
%TO.P,R4,1*%
%TO.N,Net-(C2-Pad1)*%
X96242500Y-81280000D03*
%TO.P,R4,2*%
%TO.N,Net-(C2-Pad2)*%
X98067500Y-81280000D03*
%TD*%
D12*
%TO.P,U1,1*%
%TO.N,Net-(C1-Pad2)*%
X91395000Y-97477500D03*
%TO.P,U1,2,-*%
%TO.N,GND*%
X92045000Y-97477500D03*
%TO.P,U1,3,+*%
%TO.N,Net-(C1-Pad1)*%
X92695000Y-97477500D03*
%TO.P,U1,4,V+*%
%TO.N,+12V*%
X93345000Y-97477500D03*
%TO.P,U1,5,+*%
%TO.N,Net-(C3-Pad1)*%
X93995000Y-97477500D03*
%TO.P,U1,6,-*%
%TO.N,GND*%
X94645000Y-97477500D03*
%TO.P,U1,7*%
%TO.N,Net-(C3-Pad2)*%
X95295000Y-97477500D03*
%TO.P,U1,8*%
%TO.N,Net-(C2-Pad2)*%
X95295000Y-91752500D03*
%TO.P,U1,9,-*%
%TO.N,GND*%
X94645000Y-91752500D03*
%TO.P,U1,10,+*%
%TO.N,Net-(C2-Pad1)*%
X93995000Y-91752500D03*
%TO.P,U1,11,V-*%
%TO.N,-12V*%
X93345000Y-91752500D03*
%TO.P,U1,12,+*%
%TO.N,Net-(C4-Pad1)*%
X92695000Y-91752500D03*
%TO.P,U1,13,-*%
%TO.N,GND*%
X92045000Y-91752500D03*
%TO.P,U1,14*%
%TO.N,Net-(C4-Pad2)*%
X91395000Y-91752500D03*
%TD*%
D13*
%TO.P,C3,1*%
%TO.N,Net-(C3-Pad1)*%
X96205000Y-103505000D03*
%TO.P,C3,2*%
%TO.N,Net-(C3-Pad2)*%
X98105000Y-103505000D03*
%TD*%
D14*
%TO.P,J2,1,Pin_1*%
%TO.N,Net-(C4-Pad2)*%
X100600000Y-96520000D03*
D15*
%TO.P,J2,2,Pin_2*%
%TO.N,GND*%
X102600000Y-96520000D03*
%TD*%
D16*
%TO.P,C4,1*%
%TO.N,Net-(C4-Pad1)*%
X93660000Y-86360000D03*
%TO.P,C4,2*%
%TO.N,Net-(C4-Pad2)*%
X91760000Y-86360000D03*
%TD*%
D17*
%TO.P,R3,1*%
%TO.N,Net-(C1-Pad1)*%
X92987500Y-108585000D03*
%TO.P,R3,2*%
%TO.N,Net-(C1-Pad2)*%
X91162500Y-108585000D03*
%TD*%
D14*
%TO.P,J3,1,Pin_1*%
%TO.N,+12V*%
X100235000Y-92075000D03*
D15*
%TO.P,J3,2,Pin_2*%
%TO.N,GND*%
X102235000Y-92075000D03*
%TO.P,J3,3,Pin_3*%
%TO.N,-12V*%
X104235000Y-92075000D03*
%TD*%
D17*
%TO.P,R8,1*%
%TO.N,Net-(C4-Pad1)*%
X93980000Y-81280000D03*
%TO.P,R8,2*%
%TO.N,Net-(C4-Pad2)*%
X92155000Y-81280000D03*
%TD*%
D13*
%TO.P,C2,1*%
%TO.N,Net-(C2-Pad1)*%
X96205000Y-86360000D03*
%TO.P,C2,2*%
%TO.N,Net-(C2-Pad2)*%
X98105000Y-86360000D03*
%TD*%
D11*
%TO.P,R7,1*%
%TO.N,Net-(C3-Pad1)*%
X96242500Y-108585000D03*
%TO.P,R7,2*%
%TO.N,Net-(C3-Pad2)*%
X98067500Y-108585000D03*
%TD*%
D16*
%TO.P,C1,1*%
%TO.N,Net-(C1-Pad1)*%
X93025000Y-103505000D03*
%TO.P,C1,2*%
%TO.N,Net-(C1-Pad2)*%
X91125000Y-103505000D03*
%TD*%
D10*
%TO.P,R2,1*%
%TO.N,Net-(C3-Pad2)*%
X101600000Y-86637500D03*
%TO.P,R2,2*%
%TO.N,Net-(C2-Pad1)*%
X101600000Y-84812500D03*
%TD*%
D14*
%TO.P,J1,1,Pin_1*%
%TO.N,Net-(J1-Pad1)*%
X84090000Y-94615000D03*
D15*
%TO.P,J1,2,Pin_2*%
%TO.N,GND*%
X86090000Y-94615000D03*
%TD*%
D11*
%TO.P,R1,1*%
%TO.N,Net-(J1-Pad1)*%
X86717500Y-108585000D03*
%TO.P,R1,2*%
%TO.N,Net-(C1-Pad1)*%
X88542500Y-108585000D03*
%TD*%
%TO.P,R6,1*%
%TO.N,Net-(C2-Pad2)*%
X87352500Y-86360000D03*
%TO.P,R6,2*%
%TO.N,Net-(C4-Pad1)*%
X89177500Y-86360000D03*
%TD*%
D18*
%TO.N,Net-(C1-Pad1)*%
X94488000Y-109220000D03*
X94488000Y-111760000D03*
%TO.N,Net-(C2-Pad1)*%
X99060000Y-83820000D03*
X95250000Y-84455000D03*
%TO.N,Net-(C2-Pad2)*%
X88265000Y-88900000D03*
X95407500Y-89057500D03*
%TO.N,Net-(C4-Pad1)*%
X92710000Y-88175500D03*
X89535000Y-88175500D03*
%TO.N,Net-(C4-Pad2)*%
X89535000Y-93345000D03*
X97790000Y-96520000D03*
%TO.N,GND*%
X95250000Y-90170000D03*
X102235000Y-89535000D03*
X95250000Y-99695000D03*
X92075000Y-99695000D03*
X88265000Y-90170000D03*
X91970500Y-90170000D03*
%TO.N,+12V*%
X95885000Y-93345000D03*
X98425000Y-92075000D03*
%TO.N,-12V*%
X94420201Y-94174799D03*
X104775000Y-94615000D03*
%TD*%
D19*
%TO.N,Net-(C1-Pad1)*%
X94488000Y-109220000D02*
X93622500Y-109220000D01*
X88542500Y-108585000D02*
X91717500Y-111760000D01*
X91717500Y-111760000D02*
X94488000Y-111760000D01*
X93622500Y-109220000D02*
X92987500Y-108585000D01*
X93025000Y-98740000D02*
X92695000Y-98410000D01*
X93025000Y-103505000D02*
X93025000Y-108547500D01*
X93025000Y-108547500D02*
X92987500Y-108585000D01*
X92695000Y-98410000D02*
X92695000Y-97477500D01*
X93025000Y-103505000D02*
X93025000Y-98740000D01*
%TO.N,Net-(C1-Pad2)*%
X101600000Y-108862500D02*
X100403460Y-110059040D01*
X91125000Y-103505000D02*
X91125000Y-97747500D01*
X91125000Y-108547500D02*
X91162500Y-108585000D01*
X91125000Y-103505000D02*
X91125000Y-108547500D01*
X92636540Y-110059040D02*
X91162500Y-108585000D01*
X100403460Y-110059040D02*
X92636540Y-110059040D01*
X91125000Y-97747500D02*
X91395000Y-97477500D01*
%TO.N,Net-(C2-Pad1)*%
X96205000Y-86360000D02*
X93995000Y-88570000D01*
X101600000Y-84812500D02*
X100607500Y-83820000D01*
X96205000Y-82870000D02*
X96205000Y-81317500D01*
X95250000Y-84455000D02*
X95250000Y-83825000D01*
X95250000Y-83825000D02*
X96205000Y-82870000D01*
X93995000Y-88570000D02*
X93995000Y-91752500D01*
X96205000Y-86360000D02*
X96205000Y-82870000D01*
X96205000Y-81317500D02*
X96242500Y-81280000D01*
X100607500Y-83820000D02*
X99060000Y-83820000D01*
%TO.N,Net-(C2-Pad2)*%
X96997500Y-89057500D02*
X95407500Y-89057500D01*
X95407500Y-89057500D02*
X95295000Y-89170000D01*
X96520000Y-90527500D02*
X95295000Y-91752500D01*
X98105000Y-86360000D02*
X98105000Y-87950000D01*
X98105000Y-81317500D02*
X98067500Y-81280000D01*
X96520000Y-90170000D02*
X96520000Y-90527500D01*
X87352500Y-86360000D02*
X87352500Y-87987500D01*
X87352500Y-87987500D02*
X88265000Y-88900000D01*
X98105000Y-87950000D02*
X96997500Y-89057500D01*
X98105000Y-86360000D02*
X98105000Y-81317500D01*
X95407500Y-89057500D02*
X96520000Y-90170000D01*
%TO.N,Net-(C3-Pad1)*%
X97267020Y-109609520D02*
X96242500Y-108585000D01*
X101600000Y-107037500D02*
X99027980Y-109609520D01*
X96205000Y-103505000D02*
X96205000Y-108547500D01*
X93995000Y-101295000D02*
X96205000Y-103505000D01*
X93995000Y-97477500D02*
X93995000Y-101295000D01*
X96205000Y-108547500D02*
X96242500Y-108585000D01*
X99027980Y-109609520D02*
X97267020Y-109609520D01*
%TO.N,Net-(C3-Pad2)*%
X98105000Y-103505000D02*
X98105000Y-100287500D01*
X97155000Y-90805000D02*
X97155000Y-95617500D01*
X98105000Y-100287500D02*
X95295000Y-97477500D01*
X97155000Y-95617500D02*
X95295000Y-97477500D01*
X101600000Y-86637500D02*
X101322500Y-86637500D01*
X101322500Y-86637500D02*
X97155000Y-90805000D01*
X98105000Y-108547500D02*
X98067500Y-108585000D01*
X98105000Y-103505000D02*
X98105000Y-108547500D01*
%TO.N,Net-(C4-Pad1)*%
X92695000Y-87325000D02*
X92695000Y-91752500D01*
X93660000Y-86360000D02*
X92695000Y-87325000D01*
X93660000Y-86360000D02*
X93660000Y-81600000D01*
X89177500Y-87818000D02*
X89535000Y-88175500D01*
X93660000Y-81600000D02*
X93980000Y-81280000D01*
X89177500Y-86360000D02*
X89177500Y-87818000D01*
%TO.N,Net-(C4-Pad2)*%
X91760000Y-87945000D02*
X89535000Y-90170000D01*
X91760000Y-86360000D02*
X91760000Y-81675000D01*
X89535000Y-93345000D02*
X89535000Y-90805000D01*
X91760000Y-81675000D02*
X92155000Y-81280000D01*
X90482500Y-91752500D02*
X91395000Y-91752500D01*
X91760000Y-86360000D02*
X91395000Y-86725000D01*
X89535000Y-90170000D02*
X89535000Y-90805000D01*
X91760000Y-86360000D02*
X91760000Y-87945000D01*
X100600000Y-96520000D02*
X97790000Y-96520000D01*
X89535000Y-90805000D02*
X90482500Y-91752500D01*
%TO.N,Net-(J1-Pad1)*%
X84090000Y-105957500D02*
X84090000Y-94615000D01*
X86717500Y-108585000D02*
X84090000Y-105957500D01*
%TO.N,GND*%
X95250000Y-99695000D02*
X94645000Y-99090000D01*
X102235000Y-92075000D02*
X102235000Y-89535000D01*
X102600000Y-92440000D02*
X102235000Y-92075000D01*
X94645000Y-99090000D02*
X94645000Y-97477500D01*
X94645000Y-90775000D02*
X94645000Y-91752500D01*
X92045000Y-99665000D02*
X92075000Y-99695000D01*
X91970500Y-90170000D02*
X91970500Y-91678000D01*
X86090000Y-94615000D02*
X86090000Y-92345000D01*
X86090000Y-92345000D02*
X88265000Y-90170000D01*
X102600000Y-96520000D02*
X102600000Y-92440000D01*
X92045000Y-97477500D02*
X92045000Y-99665000D01*
X95250000Y-90170000D02*
X94645000Y-90775000D01*
X91970500Y-91678000D02*
X92045000Y-91752500D01*
%TO.N,+12V*%
X95885000Y-93980000D02*
X95885000Y-93345000D01*
X95885000Y-94249639D02*
X95885000Y-93980000D01*
X93345000Y-96789639D02*
X95885000Y-94249639D01*
X98425000Y-92075000D02*
X100235000Y-92075000D01*
X93345000Y-97477500D02*
X93345000Y-96789639D01*
D20*
%TO.N,-12V*%
X93345000Y-91752500D02*
X93345000Y-93099598D01*
X93345000Y-93099598D02*
X94420201Y-94174799D01*
X104235000Y-94075000D02*
X104235000Y-92075000D01*
X104775000Y-94615000D02*
X104235000Y-94075000D01*
%TD*%
%TA.AperFunction,Conductor*%
%TO.N,GND*%
G36*
X107507028Y-78633002D02*
G01*
X107553521Y-78686658D01*
X107563625Y-78756932D01*
X107534131Y-78821512D01*
X107521985Y-78833732D01*
X107508781Y-78845312D01*
X107371345Y-78965840D01*
X107241293Y-79130810D01*
X107238604Y-79135921D01*
X107238602Y-79135924D01*
X107188970Y-79230259D01*
X107143481Y-79316719D01*
X107081187Y-79517339D01*
X107056496Y-79725952D01*
X107058466Y-79756000D01*
X107070236Y-79935571D01*
X107121945Y-80139176D01*
X107209892Y-80329948D01*
X107331132Y-80501499D01*
X107481605Y-80648084D01*
X107486401Y-80651289D01*
X107486404Y-80651291D01*
X107605183Y-80730656D01*
X107656271Y-80764792D01*
X107661574Y-80767070D01*
X107661577Y-80767072D01*
X107698225Y-80782817D01*
X107849280Y-80847715D01*
X107949192Y-80870323D01*
X108048533Y-80892802D01*
X108048536Y-80892802D01*
X108054169Y-80894077D01*
X108059940Y-80894304D01*
X108059942Y-80894304D01*
X108124800Y-80896852D01*
X108264076Y-80902324D01*
X108369455Y-80887045D01*
X108466250Y-80873011D01*
X108466255Y-80873010D01*
X108471971Y-80872181D01*
X108477443Y-80870323D01*
X108477445Y-80870323D01*
X108665424Y-80806512D01*
X108670892Y-80804656D01*
X108854176Y-80702012D01*
X109015686Y-80567686D01*
X109074126Y-80497419D01*
X109124126Y-80437301D01*
X109183063Y-80397717D01*
X109254045Y-80396281D01*
X109314536Y-80433448D01*
X109345329Y-80497419D01*
X109347000Y-80517870D01*
X109347000Y-112114979D01*
X109326998Y-112183100D01*
X109273342Y-112229593D01*
X109203068Y-112239697D01*
X109174312Y-112232009D01*
X109038020Y-112177635D01*
X108847402Y-112139718D01*
X108837654Y-112137779D01*
X108837653Y-112137779D01*
X108831988Y-112136652D01*
X108826214Y-112136576D01*
X108826210Y-112136576D01*
X108719656Y-112135182D01*
X108621937Y-112133903D01*
X108616240Y-112134882D01*
X108616239Y-112134882D01*
X108478802Y-112158498D01*
X108414902Y-112169478D01*
X108217818Y-112242186D01*
X108212857Y-112245138D01*
X108212856Y-112245138D01*
X108042251Y-112346637D01*
X108042248Y-112346639D01*
X108037283Y-112349593D01*
X107879345Y-112488101D01*
X107749293Y-112653071D01*
X107651481Y-112838980D01*
X107589187Y-113039600D01*
X107564496Y-113248213D01*
X107566466Y-113278261D01*
X107578236Y-113457832D01*
X107615591Y-113604916D01*
X107623227Y-113634985D01*
X107620609Y-113705933D01*
X107580048Y-113764203D01*
X107514424Y-113791294D01*
X107501104Y-113792000D01*
X81855535Y-113792000D01*
X81787414Y-113771998D01*
X81740921Y-113718342D01*
X81730817Y-113648068D01*
X81736222Y-113625499D01*
X81759322Y-113557449D01*
X81759323Y-113557444D01*
X81761181Y-113551971D01*
X81762010Y-113546255D01*
X81762011Y-113546250D01*
X81790791Y-113347750D01*
X81791324Y-113344076D01*
X81792897Y-113284000D01*
X81773675Y-113074812D01*
X81765363Y-113045337D01*
X81718222Y-112878190D01*
X81718221Y-112878188D01*
X81716654Y-112872631D01*
X81702781Y-112844498D01*
X81626298Y-112689406D01*
X81623743Y-112684225D01*
X81498054Y-112515907D01*
X81418912Y-112442749D01*
X81348036Y-112377232D01*
X81348034Y-112377230D01*
X81343795Y-112373312D01*
X81338598Y-112370033D01*
X81171014Y-112264295D01*
X81166134Y-112261216D01*
X80971020Y-112183374D01*
X80764988Y-112142391D01*
X80759214Y-112142315D01*
X80759210Y-112142315D01*
X80652656Y-112140921D01*
X80554937Y-112139642D01*
X80549240Y-112140621D01*
X80549239Y-112140621D01*
X80353599Y-112174238D01*
X80347902Y-112175217D01*
X80150818Y-112247925D01*
X80145857Y-112250877D01*
X80145856Y-112250877D01*
X80073423Y-112293970D01*
X80004652Y-112311610D01*
X79937262Y-112289269D01*
X79892649Y-112234041D01*
X79883000Y-112185685D01*
X79883000Y-95338134D01*
X82906500Y-95338134D01*
X82913255Y-95400316D01*
X82964385Y-95536705D01*
X83051739Y-95653261D01*
X83168295Y-95740615D01*
X83304684Y-95791745D01*
X83331914Y-95794703D01*
X83344108Y-95796028D01*
X83409670Y-95823270D01*
X83450096Y-95881634D01*
X83456500Y-95921291D01*
X83456500Y-105878733D01*
X83455973Y-105889916D01*
X83454298Y-105897409D01*
X83454547Y-105905335D01*
X83454547Y-105905336D01*
X83456438Y-105965486D01*
X83456500Y-105969445D01*
X83456500Y-105997356D01*
X83456997Y-106001290D01*
X83456997Y-106001291D01*
X83457005Y-106001356D01*
X83457938Y-106013193D01*
X83459327Y-106057389D01*
X83464978Y-106076839D01*
X83468987Y-106096200D01*
X83471526Y-106116297D01*
X83474445Y-106123668D01*
X83474445Y-106123670D01*
X83487804Y-106157412D01*
X83491649Y-106168642D01*
X83503982Y-106211093D01*
X83508015Y-106217912D01*
X83508017Y-106217917D01*
X83514293Y-106228528D01*
X83522988Y-106246276D01*
X83530448Y-106265117D01*
X83535110Y-106271533D01*
X83535110Y-106271534D01*
X83556436Y-106300887D01*
X83562952Y-106310807D01*
X83585458Y-106348862D01*
X83599779Y-106363183D01*
X83612619Y-106378216D01*
X83624528Y-106394607D01*
X83630634Y-106399658D01*
X83658605Y-106422798D01*
X83667384Y-106430788D01*
X85659595Y-108422999D01*
X85693621Y-108485311D01*
X85696500Y-108512094D01*
X85696500Y-109085400D01*
X85696837Y-109088646D01*
X85696837Y-109088650D01*
X85705807Y-109175095D01*
X85707474Y-109191166D01*
X85763450Y-109358946D01*
X85856522Y-109509348D01*
X85981697Y-109634305D01*
X85987927Y-109638145D01*
X85987928Y-109638146D01*
X86125090Y-109722694D01*
X86132262Y-109727115D01*
X86212005Y-109753564D01*
X86293611Y-109780632D01*
X86293613Y-109780632D01*
X86300139Y-109782797D01*
X86306975Y-109783497D01*
X86306978Y-109783498D01*
X86350031Y-109787909D01*
X86404600Y-109793500D01*
X87030400Y-109793500D01*
X87033646Y-109793163D01*
X87033650Y-109793163D01*
X87129308Y-109783238D01*
X87129312Y-109783237D01*
X87136166Y-109782526D01*
X87142702Y-109780345D01*
X87142704Y-109780345D01*
X87274806Y-109736272D01*
X87303946Y-109726550D01*
X87454348Y-109633478D01*
X87540784Y-109546891D01*
X87603066Y-109512812D01*
X87673886Y-109517815D01*
X87718976Y-109546736D01*
X87806697Y-109634305D01*
X87812927Y-109638145D01*
X87812928Y-109638146D01*
X87950090Y-109722694D01*
X87957262Y-109727115D01*
X88037005Y-109753564D01*
X88118611Y-109780632D01*
X88118613Y-109780632D01*
X88125139Y-109782797D01*
X88131975Y-109783497D01*
X88131978Y-109783498D01*
X88175031Y-109787909D01*
X88229600Y-109793500D01*
X88802906Y-109793500D01*
X88871027Y-109813502D01*
X88892001Y-109830405D01*
X91213848Y-112152253D01*
X91221388Y-112160539D01*
X91225500Y-112167018D01*
X91231277Y-112172443D01*
X91275151Y-112213643D01*
X91277993Y-112216398D01*
X91297730Y-112236135D01*
X91300927Y-112238615D01*
X91309947Y-112246318D01*
X91342179Y-112276586D01*
X91349125Y-112280405D01*
X91349128Y-112280407D01*
X91359934Y-112286348D01*
X91376453Y-112297199D01*
X91392459Y-112309614D01*
X91399728Y-112312759D01*
X91399732Y-112312762D01*
X91433037Y-112327174D01*
X91443687Y-112332391D01*
X91482440Y-112353695D01*
X91490115Y-112355666D01*
X91490116Y-112355666D01*
X91502062Y-112358733D01*
X91520767Y-112365137D01*
X91539355Y-112373181D01*
X91547178Y-112374420D01*
X91547188Y-112374423D01*
X91583024Y-112380099D01*
X91594644Y-112382505D01*
X91629789Y-112391528D01*
X91637470Y-112393500D01*
X91657724Y-112393500D01*
X91677434Y-112395051D01*
X91697443Y-112398220D01*
X91705335Y-112397474D01*
X91741461Y-112394059D01*
X91753319Y-112393500D01*
X93779800Y-112393500D01*
X93847921Y-112413502D01*
X93867147Y-112429843D01*
X93867420Y-112429540D01*
X93872332Y-112433963D01*
X93876747Y-112438866D01*
X93898329Y-112454546D01*
X93977395Y-112511991D01*
X94031248Y-112551118D01*
X94037276Y-112553802D01*
X94037278Y-112553803D01*
X94199681Y-112626109D01*
X94205712Y-112628794D01*
X94298581Y-112648534D01*
X94386056Y-112667128D01*
X94386061Y-112667128D01*
X94392513Y-112668500D01*
X94583487Y-112668500D01*
X94589939Y-112667128D01*
X94589944Y-112667128D01*
X94677419Y-112648534D01*
X94770288Y-112628794D01*
X94776319Y-112626109D01*
X94938722Y-112553803D01*
X94938724Y-112553802D01*
X94944752Y-112551118D01*
X95099253Y-112438866D01*
X95135851Y-112398220D01*
X95222621Y-112301852D01*
X95222622Y-112301851D01*
X95227040Y-112296944D01*
X95292768Y-112183100D01*
X95319223Y-112137279D01*
X95319224Y-112137278D01*
X95322527Y-112131556D01*
X95381542Y-111949928D01*
X95401504Y-111760000D01*
X95381542Y-111570072D01*
X95322527Y-111388444D01*
X95227040Y-111223056D01*
X95099253Y-111081134D01*
X94944752Y-110968882D01*
X94938724Y-110966198D01*
X94938722Y-110966197D01*
X94865613Y-110933647D01*
X94811517Y-110887667D01*
X94790868Y-110819739D01*
X94810220Y-110751431D01*
X94863431Y-110704430D01*
X94916862Y-110692540D01*
X100324693Y-110692540D01*
X100335876Y-110693067D01*
X100343369Y-110694742D01*
X100351295Y-110694493D01*
X100351296Y-110694493D01*
X100411446Y-110692602D01*
X100415405Y-110692540D01*
X100443316Y-110692540D01*
X100447251Y-110692043D01*
X100447316Y-110692035D01*
X100459153Y-110691102D01*
X100491411Y-110690088D01*
X100495430Y-110689962D01*
X100503349Y-110689713D01*
X100522803Y-110684061D01*
X100542160Y-110680053D01*
X100554390Y-110678508D01*
X100554391Y-110678508D01*
X100562257Y-110677514D01*
X100569628Y-110674595D01*
X100569630Y-110674595D01*
X100603372Y-110661236D01*
X100614602Y-110657391D01*
X100649443Y-110647269D01*
X100649444Y-110647269D01*
X100657053Y-110645058D01*
X100663872Y-110641025D01*
X100663877Y-110641023D01*
X100674488Y-110634747D01*
X100692236Y-110626052D01*
X100711077Y-110618592D01*
X100731447Y-110603793D01*
X100746847Y-110592604D01*
X100756767Y-110586088D01*
X100787995Y-110567620D01*
X100787998Y-110567618D01*
X100794822Y-110563582D01*
X100809143Y-110549261D01*
X100824177Y-110536420D01*
X100825892Y-110535174D01*
X100840567Y-110524512D01*
X100845617Y-110518408D01*
X100845622Y-110518403D01*
X100868753Y-110490442D01*
X100876743Y-110481661D01*
X101438001Y-109920404D01*
X101500313Y-109886379D01*
X101527096Y-109883500D01*
X102100400Y-109883500D01*
X102103646Y-109883163D01*
X102103650Y-109883163D01*
X102199308Y-109873238D01*
X102199312Y-109873237D01*
X102206166Y-109872526D01*
X102212702Y-109870345D01*
X102212704Y-109870345D01*
X102366998Y-109818868D01*
X102373946Y-109816550D01*
X102524348Y-109723478D01*
X102649305Y-109598303D01*
X102680996Y-109546891D01*
X102738275Y-109453968D01*
X102738276Y-109453966D01*
X102742115Y-109447738D01*
X102771566Y-109358946D01*
X102795632Y-109286389D01*
X102795632Y-109286387D01*
X102797797Y-109279861D01*
X102808500Y-109175400D01*
X102808500Y-108549600D01*
X102807622Y-108541134D01*
X102798238Y-108450692D01*
X102798237Y-108450688D01*
X102797526Y-108443834D01*
X102793833Y-108432763D01*
X102743868Y-108283002D01*
X102741550Y-108276054D01*
X102648478Y-108125652D01*
X102561891Y-108039216D01*
X102527812Y-107976934D01*
X102532815Y-107906114D01*
X102561736Y-107861025D01*
X102644134Y-107778483D01*
X102649305Y-107773303D01*
X102667414Y-107743925D01*
X102738275Y-107628968D01*
X102738276Y-107628966D01*
X102742115Y-107622738D01*
X102784917Y-107493693D01*
X102795632Y-107461389D01*
X102795632Y-107461387D01*
X102797797Y-107454861D01*
X102808500Y-107350400D01*
X102808500Y-106724600D01*
X102797526Y-106618834D01*
X102741550Y-106451054D01*
X102648478Y-106300652D01*
X102523303Y-106175695D01*
X102493643Y-106157412D01*
X102378968Y-106086725D01*
X102378966Y-106086724D01*
X102372738Y-106082885D01*
X102212254Y-106029655D01*
X102211389Y-106029368D01*
X102211387Y-106029368D01*
X102204861Y-106027203D01*
X102198025Y-106026503D01*
X102198022Y-106026502D01*
X102154969Y-106022091D01*
X102100400Y-106016500D01*
X101099600Y-106016500D01*
X101096354Y-106016837D01*
X101096350Y-106016837D01*
X101000692Y-106026762D01*
X101000688Y-106026763D01*
X100993834Y-106027474D01*
X100987298Y-106029655D01*
X100987296Y-106029655D01*
X100927904Y-106049470D01*
X100826054Y-106083450D01*
X100675652Y-106176522D01*
X100550695Y-106301697D01*
X100546855Y-106307927D01*
X100546854Y-106307928D01*
X100473718Y-106426577D01*
X100457885Y-106452262D01*
X100402203Y-106620139D01*
X100391500Y-106724600D01*
X100391500Y-107297906D01*
X100371498Y-107366027D01*
X100354595Y-107387001D01*
X99303595Y-108438000D01*
X99241283Y-108472026D01*
X99170467Y-108466961D01*
X99113632Y-108424414D01*
X99088821Y-108357894D01*
X99088500Y-108348905D01*
X99088500Y-108084600D01*
X99083791Y-108039216D01*
X99078238Y-107985692D01*
X99078237Y-107985688D01*
X99077526Y-107978834D01*
X99021550Y-107811054D01*
X98928478Y-107660652D01*
X98803303Y-107535695D01*
X98797072Y-107531854D01*
X98791327Y-107527317D01*
X98792377Y-107525987D01*
X98750892Y-107479893D01*
X98738500Y-107425403D01*
X98738500Y-104704899D01*
X98758502Y-104636778D01*
X98798197Y-104597755D01*
X98823120Y-104582332D01*
X98829348Y-104578478D01*
X98954305Y-104453303D01*
X99047115Y-104302738D01*
X99102797Y-104134861D01*
X99113500Y-104030400D01*
X99113500Y-102979600D01*
X99102526Y-102873834D01*
X99046550Y-102706054D01*
X98953478Y-102555652D01*
X98828303Y-102430695D01*
X98798382Y-102412251D01*
X98750890Y-102359478D01*
X98738500Y-102304992D01*
X98738500Y-100366267D01*
X98739027Y-100355084D01*
X98740702Y-100347591D01*
X98738562Y-100279514D01*
X98738500Y-100275555D01*
X98738500Y-100247644D01*
X98737995Y-100243644D01*
X98737062Y-100231801D01*
X98735922Y-100195529D01*
X98735673Y-100187610D01*
X98730022Y-100168158D01*
X98726014Y-100148806D01*
X98724467Y-100136563D01*
X98723474Y-100128703D01*
X98720556Y-100121332D01*
X98707200Y-100087597D01*
X98703355Y-100076370D01*
X98702721Y-100074187D01*
X98691018Y-100033907D01*
X98680707Y-100016472D01*
X98672012Y-99998724D01*
X98664552Y-99979883D01*
X98638564Y-99944113D01*
X98632048Y-99934193D01*
X98613580Y-99902965D01*
X98613578Y-99902962D01*
X98609542Y-99896138D01*
X98595221Y-99881817D01*
X98582380Y-99866783D01*
X98575131Y-99856806D01*
X98570472Y-99850393D01*
X98536395Y-99822202D01*
X98527616Y-99814212D01*
X96279999Y-97566595D01*
X96245973Y-97504283D01*
X96251038Y-97433468D01*
X96279999Y-97388405D01*
X96773981Y-96894423D01*
X96836293Y-96860397D01*
X96907108Y-96865462D01*
X96963944Y-96908009D01*
X96972189Y-96920509D01*
X97050960Y-97056944D01*
X97178747Y-97198866D01*
X97333248Y-97311118D01*
X97339276Y-97313802D01*
X97339278Y-97313803D01*
X97501681Y-97386109D01*
X97507712Y-97388794D01*
X97590791Y-97406453D01*
X97688056Y-97427128D01*
X97688061Y-97427128D01*
X97694513Y-97428500D01*
X97885487Y-97428500D01*
X97891939Y-97427128D01*
X97891944Y-97427128D01*
X97989209Y-97406453D01*
X98072288Y-97388794D01*
X98078319Y-97386109D01*
X98240722Y-97313803D01*
X98240724Y-97313802D01*
X98246752Y-97311118D01*
X98277161Y-97289025D01*
X98379671Y-97214546D01*
X98401253Y-97198866D01*
X98405668Y-97193963D01*
X98410580Y-97189540D01*
X98411705Y-97190789D01*
X98465014Y-97157949D01*
X98498200Y-97153500D01*
X99293709Y-97153500D01*
X99361830Y-97173502D01*
X99408323Y-97227158D01*
X99418972Y-97265892D01*
X99423255Y-97305316D01*
X99474385Y-97441705D01*
X99561739Y-97558261D01*
X99678295Y-97645615D01*
X99814684Y-97696745D01*
X99876866Y-97703500D01*
X101323134Y-97703500D01*
X101385316Y-97696745D01*
X101521705Y-97645615D01*
X101638261Y-97558261D01*
X101695515Y-97481867D01*
X101752373Y-97439353D01*
X101823191Y-97434327D01*
X101866342Y-97452668D01*
X102028299Y-97560884D01*
X102038409Y-97566374D01*
X102227566Y-97647642D01*
X102238499Y-97651194D01*
X102328332Y-97671521D01*
X102342405Y-97670632D01*
X102346000Y-97661233D01*
X102346000Y-97660512D01*
X102854000Y-97660512D01*
X102857966Y-97674018D01*
X102871883Y-97676011D01*
X102882817Y-97673386D01*
X103077763Y-97607210D01*
X103088272Y-97602531D01*
X103267882Y-97501944D01*
X103277375Y-97495420D01*
X103435653Y-97363782D01*
X103443782Y-97355653D01*
X103575420Y-97197375D01*
X103581944Y-97187882D01*
X103682531Y-97008272D01*
X103687210Y-96997763D01*
X103753386Y-96802817D01*
X103756017Y-96791857D01*
X103754040Y-96777992D01*
X103740474Y-96774000D01*
X102872115Y-96774000D01*
X102856876Y-96778475D01*
X102855671Y-96779865D01*
X102854000Y-96787548D01*
X102854000Y-97660512D01*
X102346000Y-97660512D01*
X102346000Y-96247885D01*
X102854000Y-96247885D01*
X102858475Y-96263124D01*
X102859865Y-96264329D01*
X102867548Y-96266000D01*
X103739485Y-96266000D01*
X103753016Y-96262027D01*
X103754185Y-96253892D01*
X103710725Y-96099794D01*
X103706603Y-96089055D01*
X103615549Y-95904417D01*
X103609538Y-95894608D01*
X103486360Y-95729651D01*
X103478671Y-95721111D01*
X103327490Y-95581361D01*
X103318365Y-95574360D01*
X103144255Y-95464505D01*
X103134008Y-95459284D01*
X102942793Y-95382997D01*
X102931767Y-95379730D01*
X102871770Y-95367797D01*
X102858894Y-95368949D01*
X102854000Y-95384102D01*
X102854000Y-96247885D01*
X102346000Y-96247885D01*
X102346000Y-95381337D01*
X102342194Y-95368375D01*
X102327278Y-95366439D01*
X102298202Y-95371435D01*
X102287082Y-95374415D01*
X102093940Y-95445669D01*
X102083562Y-95450619D01*
X101906639Y-95555877D01*
X101897321Y-95562647D01*
X101879893Y-95577931D01*
X101815489Y-95607809D01*
X101745156Y-95598123D01*
X101695989Y-95558765D01*
X101643643Y-95488920D01*
X101643642Y-95488919D01*
X101638261Y-95481739D01*
X101521705Y-95394385D01*
X101385316Y-95343255D01*
X101323134Y-95336500D01*
X99876866Y-95336500D01*
X99814684Y-95343255D01*
X99678295Y-95394385D01*
X99561739Y-95481739D01*
X99474385Y-95598295D01*
X99423255Y-95734684D01*
X99420914Y-95756233D01*
X99418972Y-95774108D01*
X99391730Y-95839670D01*
X99333366Y-95880096D01*
X99293709Y-95886500D01*
X98498200Y-95886500D01*
X98430079Y-95866498D01*
X98410853Y-95850157D01*
X98410580Y-95850460D01*
X98405668Y-95846037D01*
X98401253Y-95841134D01*
X98309000Y-95774108D01*
X98252094Y-95732763D01*
X98252093Y-95732762D01*
X98246752Y-95728882D01*
X98240724Y-95726198D01*
X98240722Y-95726197D01*
X98078319Y-95653891D01*
X98078318Y-95653891D01*
X98072288Y-95651206D01*
X97888302Y-95612098D01*
X97825830Y-95578371D01*
X97791508Y-95516221D01*
X97788500Y-95488852D01*
X97788500Y-92979782D01*
X97808502Y-92911661D01*
X97862158Y-92865168D01*
X97932432Y-92855064D01*
X97967730Y-92867282D01*
X97968248Y-92866118D01*
X98092693Y-92921524D01*
X98142712Y-92943794D01*
X98236113Y-92963647D01*
X98323056Y-92982128D01*
X98323061Y-92982128D01*
X98329513Y-92983500D01*
X98520487Y-92983500D01*
X98526939Y-92982128D01*
X98526944Y-92982128D01*
X98613887Y-92963647D01*
X98707288Y-92943794D01*
X98750210Y-92924684D01*
X98875722Y-92868803D01*
X98875724Y-92868802D01*
X98881752Y-92866118D01*
X98888251Y-92861396D01*
X98889034Y-92861116D01*
X98892811Y-92858936D01*
X98893210Y-92859627D01*
X98955119Y-92837538D01*
X99024270Y-92853619D01*
X99073750Y-92904534D01*
X99080293Y-92919103D01*
X99090064Y-92945166D01*
X99109385Y-92996705D01*
X99196739Y-93113261D01*
X99313295Y-93200615D01*
X99449684Y-93251745D01*
X99511866Y-93258500D01*
X100958134Y-93258500D01*
X101020316Y-93251745D01*
X101156705Y-93200615D01*
X101273261Y-93113261D01*
X101330515Y-93036867D01*
X101387373Y-92994353D01*
X101458191Y-92989327D01*
X101501342Y-93007668D01*
X101663299Y-93115884D01*
X101673409Y-93121374D01*
X101862566Y-93202642D01*
X101873499Y-93206194D01*
X101963332Y-93226521D01*
X101977405Y-93225632D01*
X101981000Y-93216233D01*
X101981000Y-93215512D01*
X102489000Y-93215512D01*
X102492966Y-93229018D01*
X102506883Y-93231011D01*
X102517817Y-93228386D01*
X102712763Y-93162210D01*
X102723272Y-93157531D01*
X102902882Y-93056944D01*
X102912375Y-93050420D01*
X103070653Y-92918782D01*
X103078782Y-92910653D01*
X103134923Y-92843151D01*
X103193861Y-92803567D01*
X103264843Y-92802131D01*
X103327607Y-92841888D01*
X103327868Y-92842193D01*
X103331204Y-92846914D01*
X103335346Y-92850949D01*
X103352112Y-92867282D01*
X103487009Y-92998692D01*
X103570504Y-93054482D01*
X103616030Y-93108959D01*
X103626500Y-93159246D01*
X103626500Y-94026864D01*
X103625422Y-94043307D01*
X103621250Y-94075000D01*
X103626500Y-94114880D01*
X103626500Y-94114885D01*
X103634388Y-94174799D01*
X103642162Y-94233851D01*
X103703476Y-94381876D01*
X103708503Y-94388427D01*
X103708504Y-94388429D01*
X103776520Y-94477069D01*
X103776526Y-94477075D01*
X103801013Y-94508987D01*
X103812888Y-94518099D01*
X103854757Y-94575437D01*
X103861555Y-94614441D01*
X103861496Y-94615000D01*
X103862186Y-94621565D01*
X103875375Y-94747048D01*
X103881458Y-94804928D01*
X103940473Y-94986556D01*
X104035960Y-95151944D01*
X104163747Y-95293866D01*
X104229352Y-95341531D01*
X104297761Y-95391233D01*
X104318248Y-95406118D01*
X104324276Y-95408802D01*
X104324278Y-95408803D01*
X104437661Y-95459284D01*
X104492712Y-95483794D01*
X104586112Y-95503647D01*
X104673056Y-95522128D01*
X104673061Y-95522128D01*
X104679513Y-95523500D01*
X104870487Y-95523500D01*
X104876939Y-95522128D01*
X104876944Y-95522128D01*
X104963888Y-95503647D01*
X105057288Y-95483794D01*
X105112339Y-95459284D01*
X105225722Y-95408803D01*
X105225724Y-95408802D01*
X105231752Y-95406118D01*
X105252240Y-95391233D01*
X105320648Y-95341531D01*
X105386253Y-95293866D01*
X105514040Y-95151944D01*
X105609527Y-94986556D01*
X105668542Y-94804928D01*
X105674626Y-94747048D01*
X105687814Y-94621565D01*
X105688504Y-94615000D01*
X105680629Y-94540070D01*
X105669232Y-94431635D01*
X105669232Y-94431633D01*
X105668542Y-94425072D01*
X105609527Y-94243444D01*
X105603989Y-94233851D01*
X105545321Y-94132237D01*
X105514040Y-94078056D01*
X105468744Y-94027749D01*
X105390675Y-93941045D01*
X105390674Y-93941044D01*
X105386253Y-93936134D01*
X105231752Y-93823882D01*
X105225724Y-93821198D01*
X105225722Y-93821197D01*
X105063319Y-93748891D01*
X105063318Y-93748891D01*
X105057288Y-93746206D01*
X104943302Y-93721977D01*
X104880830Y-93688250D01*
X104846508Y-93626100D01*
X104843500Y-93598731D01*
X104843500Y-93164623D01*
X104863502Y-93096502D01*
X104899681Y-93062478D01*
X104898410Y-93060629D01*
X104903179Y-93057351D01*
X104908213Y-93054532D01*
X104980571Y-92994353D01*
X105033215Y-92950569D01*
X105075446Y-92915446D01*
X105214532Y-92748213D01*
X105320813Y-92558435D01*
X105322669Y-92552968D01*
X105322671Y-92552963D01*
X105388874Y-92357935D01*
X105388875Y-92357930D01*
X105390730Y-92352466D01*
X105421941Y-92137205D01*
X105423570Y-92075000D01*
X105403667Y-91858400D01*
X105344626Y-91649055D01*
X105248423Y-91453974D01*
X105131320Y-91297153D01*
X105121733Y-91284315D01*
X105121732Y-91284314D01*
X105118280Y-91279691D01*
X105041689Y-91208891D01*
X104962796Y-91135963D01*
X104962793Y-91135961D01*
X104958556Y-91132044D01*
X104774599Y-91015976D01*
X104572572Y-90935376D01*
X104359239Y-90892941D01*
X104353464Y-90892865D01*
X104353460Y-90892865D01*
X104244419Y-90891438D01*
X104141746Y-90890094D01*
X104136049Y-90891073D01*
X104136048Y-90891073D01*
X103933065Y-90925952D01*
X103933062Y-90925953D01*
X103927375Y-90926930D01*
X103723307Y-91002214D01*
X103536376Y-91113427D01*
X103372842Y-91256842D01*
X103369270Y-91261373D01*
X103334688Y-91305240D01*
X103276807Y-91346353D01*
X103205887Y-91349647D01*
X103144444Y-91314075D01*
X103134780Y-91302622D01*
X103121364Y-91284655D01*
X103113671Y-91276111D01*
X102962490Y-91136361D01*
X102953365Y-91129360D01*
X102779255Y-91019505D01*
X102769008Y-91014284D01*
X102577793Y-90937997D01*
X102566767Y-90934730D01*
X102506770Y-90922797D01*
X102493894Y-90923949D01*
X102489000Y-90939102D01*
X102489000Y-93215512D01*
X101981000Y-93215512D01*
X101981000Y-90936337D01*
X101977194Y-90923375D01*
X101962278Y-90921439D01*
X101933202Y-90926435D01*
X101922082Y-90929415D01*
X101728940Y-91000669D01*
X101718562Y-91005619D01*
X101541639Y-91110877D01*
X101532321Y-91117647D01*
X101514893Y-91132931D01*
X101450489Y-91162809D01*
X101380156Y-91153123D01*
X101330989Y-91113765D01*
X101278643Y-91043920D01*
X101278642Y-91043919D01*
X101273261Y-91036739D01*
X101156705Y-90949385D01*
X101020316Y-90898255D01*
X100958134Y-90891500D01*
X99511866Y-90891500D01*
X99449684Y-90898255D01*
X99313295Y-90949385D01*
X99196739Y-91036739D01*
X99109385Y-91153295D01*
X99106233Y-91161703D01*
X99080293Y-91230897D01*
X99037651Y-91287661D01*
X98971090Y-91312361D01*
X98901741Y-91297153D01*
X98888251Y-91288604D01*
X98887092Y-91287762D01*
X98881752Y-91283882D01*
X98875724Y-91281198D01*
X98875722Y-91281197D01*
X98713319Y-91208891D01*
X98713318Y-91208891D01*
X98707288Y-91206206D01*
X98613887Y-91186353D01*
X98526944Y-91167872D01*
X98526939Y-91167872D01*
X98520487Y-91166500D01*
X98329513Y-91166500D01*
X98323061Y-91167872D01*
X98323056Y-91167872D01*
X98236113Y-91186353D01*
X98142712Y-91206206D01*
X98136682Y-91208891D01*
X98136681Y-91208891D01*
X98087255Y-91230897D01*
X97968248Y-91283882D01*
X97967323Y-91281804D01*
X97908512Y-91296076D01*
X97841419Y-91272859D01*
X97797528Y-91217055D01*
X97788500Y-91170218D01*
X97788500Y-91119594D01*
X97808502Y-91051473D01*
X97825405Y-91030499D01*
X101160500Y-87695405D01*
X101222812Y-87661379D01*
X101249595Y-87658500D01*
X102100400Y-87658500D01*
X102103646Y-87658163D01*
X102103650Y-87658163D01*
X102199308Y-87648238D01*
X102199312Y-87648237D01*
X102206166Y-87647526D01*
X102212702Y-87645345D01*
X102212704Y-87645345D01*
X102366998Y-87593868D01*
X102373946Y-87591550D01*
X102524348Y-87498478D01*
X102649305Y-87373303D01*
X102680996Y-87321891D01*
X102738275Y-87228968D01*
X102738276Y-87228966D01*
X102742115Y-87222738D01*
X102771617Y-87133791D01*
X102795632Y-87061389D01*
X102795632Y-87061387D01*
X102797797Y-87054861D01*
X102808500Y-86950400D01*
X102808500Y-86324600D01*
X102797526Y-86218834D01*
X102741550Y-86051054D01*
X102648478Y-85900652D01*
X102561891Y-85814216D01*
X102527812Y-85751934D01*
X102532815Y-85681114D01*
X102561736Y-85636025D01*
X102644134Y-85553483D01*
X102649305Y-85548303D01*
X102667414Y-85518925D01*
X102738275Y-85403968D01*
X102738276Y-85403966D01*
X102742115Y-85397738D01*
X102777563Y-85290866D01*
X102795632Y-85236389D01*
X102795632Y-85236387D01*
X102797797Y-85229861D01*
X102808500Y-85125400D01*
X102808500Y-84499600D01*
X102805792Y-84473502D01*
X102798238Y-84400692D01*
X102798237Y-84400688D01*
X102797526Y-84393834D01*
X102741550Y-84226054D01*
X102648478Y-84075652D01*
X102523303Y-83950695D01*
X102372738Y-83857885D01*
X102292671Y-83831328D01*
X102211389Y-83804368D01*
X102211387Y-83804368D01*
X102204861Y-83802203D01*
X102198025Y-83801503D01*
X102198022Y-83801502D01*
X102154969Y-83797091D01*
X102100400Y-83791500D01*
X101527095Y-83791500D01*
X101458974Y-83771498D01*
X101438000Y-83754595D01*
X101111152Y-83427747D01*
X101103612Y-83419461D01*
X101099500Y-83412982D01*
X101049848Y-83366356D01*
X101047007Y-83363602D01*
X101027270Y-83343865D01*
X101024073Y-83341385D01*
X101015051Y-83333680D01*
X101014327Y-83333000D01*
X100982821Y-83303414D01*
X100975875Y-83299595D01*
X100975872Y-83299593D01*
X100965066Y-83293652D01*
X100948547Y-83282801D01*
X100948083Y-83282441D01*
X100932541Y-83270386D01*
X100925272Y-83267241D01*
X100925268Y-83267238D01*
X100891963Y-83252826D01*
X100881313Y-83247609D01*
X100842560Y-83226305D01*
X100822937Y-83221267D01*
X100804234Y-83214863D01*
X100792920Y-83209967D01*
X100792919Y-83209967D01*
X100785645Y-83206819D01*
X100777822Y-83205580D01*
X100777812Y-83205577D01*
X100741976Y-83199901D01*
X100730356Y-83197495D01*
X100695211Y-83188472D01*
X100695210Y-83188472D01*
X100687530Y-83186500D01*
X100667276Y-83186500D01*
X100647565Y-83184949D01*
X100635386Y-83183020D01*
X100627557Y-83181780D01*
X100619665Y-83182526D01*
X100583539Y-83185941D01*
X100571681Y-83186500D01*
X99768200Y-83186500D01*
X99700079Y-83166498D01*
X99680853Y-83150157D01*
X99680580Y-83150460D01*
X99675668Y-83146037D01*
X99671253Y-83141134D01*
X99516752Y-83028882D01*
X99510724Y-83026198D01*
X99510722Y-83026197D01*
X99348319Y-82953891D01*
X99348318Y-82953891D01*
X99342288Y-82951206D01*
X99248888Y-82931353D01*
X99161944Y-82912872D01*
X99161939Y-82912872D01*
X99155487Y-82911500D01*
X98964513Y-82911500D01*
X98958061Y-82912872D01*
X98958056Y-82912872D01*
X98890697Y-82927190D01*
X98819906Y-82921788D01*
X98763273Y-82878971D01*
X98738780Y-82812333D01*
X98738500Y-82803943D01*
X98738500Y-82439428D01*
X98758502Y-82371307D01*
X98792888Y-82337505D01*
X98792388Y-82336875D01*
X98798120Y-82332332D01*
X98804348Y-82328478D01*
X98929305Y-82203303D01*
X99022115Y-82052738D01*
X99077797Y-81884861D01*
X99082151Y-81842371D01*
X99083485Y-81829344D01*
X99088500Y-81780400D01*
X99088500Y-80779600D01*
X99088163Y-80776350D01*
X99078238Y-80680692D01*
X99078237Y-80680688D01*
X99077526Y-80673834D01*
X99072203Y-80657877D01*
X99023868Y-80513002D01*
X99021550Y-80506054D01*
X98928478Y-80355652D01*
X98803303Y-80230695D01*
X98663345Y-80144423D01*
X98658968Y-80141725D01*
X98658966Y-80141724D01*
X98652738Y-80137885D01*
X98492254Y-80084655D01*
X98491389Y-80084368D01*
X98491387Y-80084368D01*
X98484861Y-80082203D01*
X98478025Y-80081503D01*
X98478022Y-80081502D01*
X98434969Y-80077091D01*
X98380400Y-80071500D01*
X97754600Y-80071500D01*
X97751354Y-80071837D01*
X97751350Y-80071837D01*
X97655692Y-80081762D01*
X97655688Y-80081763D01*
X97648834Y-80082474D01*
X97642298Y-80084655D01*
X97642296Y-80084655D01*
X97510194Y-80128728D01*
X97481054Y-80138450D01*
X97330652Y-80231522D01*
X97325479Y-80236704D01*
X97244216Y-80318109D01*
X97181934Y-80352188D01*
X97111114Y-80347185D01*
X97066025Y-80318264D01*
X96983483Y-80235866D01*
X96978303Y-80230695D01*
X96838345Y-80144423D01*
X96833968Y-80141725D01*
X96833966Y-80141724D01*
X96827738Y-80137885D01*
X96667254Y-80084655D01*
X96666389Y-80084368D01*
X96666387Y-80084368D01*
X96659861Y-80082203D01*
X96653025Y-80081503D01*
X96653022Y-80081502D01*
X96609969Y-80077091D01*
X96555400Y-80071500D01*
X95929600Y-80071500D01*
X95926354Y-80071837D01*
X95926350Y-80071837D01*
X95830692Y-80081762D01*
X95830688Y-80081763D01*
X95823834Y-80082474D01*
X95817298Y-80084655D01*
X95817296Y-80084655D01*
X95685194Y-80128728D01*
X95656054Y-80138450D01*
X95505652Y-80231522D01*
X95380695Y-80356697D01*
X95376855Y-80362927D01*
X95376854Y-80362928D01*
X95305508Y-80478673D01*
X95287885Y-80507262D01*
X95232203Y-80675139D01*
X95230936Y-80674719D01*
X95200605Y-80730656D01*
X95138394Y-80764864D01*
X95067563Y-80760008D01*
X95010603Y-80717629D01*
X94990495Y-80673678D01*
X94990026Y-80673834D01*
X94988571Y-80669474D01*
X94934050Y-80506054D01*
X94840978Y-80355652D01*
X94715803Y-80230695D01*
X94575845Y-80144423D01*
X94571468Y-80141725D01*
X94571466Y-80141724D01*
X94565238Y-80137885D01*
X94404754Y-80084655D01*
X94403889Y-80084368D01*
X94403887Y-80084368D01*
X94397361Y-80082203D01*
X94390525Y-80081503D01*
X94390522Y-80081502D01*
X94347469Y-80077091D01*
X94292900Y-80071500D01*
X93667100Y-80071500D01*
X93663854Y-80071837D01*
X93663850Y-80071837D01*
X93568192Y-80081762D01*
X93568188Y-80081763D01*
X93561334Y-80082474D01*
X93554798Y-80084655D01*
X93554796Y-80084655D01*
X93422694Y-80128728D01*
X93393554Y-80138450D01*
X93243152Y-80231522D01*
X93237979Y-80236704D01*
X93156716Y-80318109D01*
X93094434Y-80352188D01*
X93023614Y-80347185D01*
X92978525Y-80318264D01*
X92895983Y-80235866D01*
X92890803Y-80230695D01*
X92750845Y-80144423D01*
X92746468Y-80141725D01*
X92746466Y-80141724D01*
X92740238Y-80137885D01*
X92579754Y-80084655D01*
X92578889Y-80084368D01*
X92578887Y-80084368D01*
X92572361Y-80082203D01*
X92565525Y-80081503D01*
X92565522Y-80081502D01*
X92522469Y-80077091D01*
X92467900Y-80071500D01*
X91842100Y-80071500D01*
X91838854Y-80071837D01*
X91838850Y-80071837D01*
X91743192Y-80081762D01*
X91743188Y-80081763D01*
X91736334Y-80082474D01*
X91729798Y-80084655D01*
X91729796Y-80084655D01*
X91597694Y-80128728D01*
X91568554Y-80138450D01*
X91418152Y-80231522D01*
X91293195Y-80356697D01*
X91289355Y-80362927D01*
X91289354Y-80362928D01*
X91218008Y-80478673D01*
X91200385Y-80507262D01*
X91198081Y-80514209D01*
X91150429Y-80657877D01*
X91144703Y-80675139D01*
X91144003Y-80681975D01*
X91144002Y-80681978D01*
X91139591Y-80725031D01*
X91134000Y-80779600D01*
X91134000Y-81549841D01*
X91130041Y-81581176D01*
X91128472Y-81587286D01*
X91128471Y-81587293D01*
X91126500Y-81594970D01*
X91126500Y-81615224D01*
X91124949Y-81634934D01*
X91121780Y-81654943D01*
X91122526Y-81662835D01*
X91125941Y-81698961D01*
X91126500Y-81710819D01*
X91126500Y-85160101D01*
X91106498Y-85228222D01*
X91066803Y-85267245D01*
X91035652Y-85286522D01*
X90910695Y-85411697D01*
X90906855Y-85417927D01*
X90906854Y-85417928D01*
X90822345Y-85555027D01*
X90817885Y-85562262D01*
X90815581Y-85569209D01*
X90780997Y-85673478D01*
X90762203Y-85730139D01*
X90761503Y-85736975D01*
X90761502Y-85736978D01*
X90758941Y-85761978D01*
X90751500Y-85834600D01*
X90751500Y-86885400D01*
X90751837Y-86888646D01*
X90751837Y-86888650D01*
X90759745Y-86964861D01*
X90762474Y-86991166D01*
X90818450Y-87158946D01*
X90911522Y-87309348D01*
X91036697Y-87434305D01*
X91042927Y-87438145D01*
X91066618Y-87452749D01*
X91114110Y-87505522D01*
X91126500Y-87560008D01*
X91126500Y-87630405D01*
X91106498Y-87698526D01*
X91089595Y-87719500D01*
X90652900Y-88156195D01*
X90590588Y-88190221D01*
X90519773Y-88185156D01*
X90462937Y-88142609D01*
X90438495Y-88080270D01*
X90429232Y-87992135D01*
X90429232Y-87992133D01*
X90428542Y-87985572D01*
X90369527Y-87803944D01*
X90274040Y-87638556D01*
X90241599Y-87602526D01*
X90150675Y-87501545D01*
X90150674Y-87501544D01*
X90146253Y-87496634D01*
X90076039Y-87445620D01*
X90032685Y-87389397D01*
X90026610Y-87318661D01*
X90042840Y-87277568D01*
X90128275Y-87138968D01*
X90128276Y-87138966D01*
X90132115Y-87132738D01*
X90187797Y-86964861D01*
X90198500Y-86860400D01*
X90198500Y-85859600D01*
X90195906Y-85834600D01*
X90188238Y-85760692D01*
X90188237Y-85760688D01*
X90187526Y-85753834D01*
X90181903Y-85736978D01*
X90133868Y-85593002D01*
X90131550Y-85586054D01*
X90038478Y-85435652D01*
X89913303Y-85310695D01*
X89881135Y-85290866D01*
X89768968Y-85221725D01*
X89768966Y-85221724D01*
X89762738Y-85217885D01*
X89602254Y-85164655D01*
X89601389Y-85164368D01*
X89601387Y-85164368D01*
X89594861Y-85162203D01*
X89588025Y-85161503D01*
X89588022Y-85161502D01*
X89544969Y-85157091D01*
X89490400Y-85151500D01*
X88864600Y-85151500D01*
X88861354Y-85151837D01*
X88861350Y-85151837D01*
X88765692Y-85161762D01*
X88765688Y-85161763D01*
X88758834Y-85162474D01*
X88752298Y-85164655D01*
X88752296Y-85164655D01*
X88620194Y-85208728D01*
X88591054Y-85218450D01*
X88440652Y-85311522D01*
X88368798Y-85383502D01*
X88354216Y-85398109D01*
X88291934Y-85432188D01*
X88221114Y-85427185D01*
X88176025Y-85398264D01*
X88093483Y-85315866D01*
X88088303Y-85310695D01*
X88056135Y-85290866D01*
X87943968Y-85221725D01*
X87943966Y-85221724D01*
X87937738Y-85217885D01*
X87777254Y-85164655D01*
X87776389Y-85164368D01*
X87776387Y-85164368D01*
X87769861Y-85162203D01*
X87763025Y-85161503D01*
X87763022Y-85161502D01*
X87719969Y-85157091D01*
X87665400Y-85151500D01*
X87039600Y-85151500D01*
X87036354Y-85151837D01*
X87036350Y-85151837D01*
X86940692Y-85161762D01*
X86940688Y-85161763D01*
X86933834Y-85162474D01*
X86927298Y-85164655D01*
X86927296Y-85164655D01*
X86795194Y-85208728D01*
X86766054Y-85218450D01*
X86615652Y-85311522D01*
X86490695Y-85436697D01*
X86486855Y-85442927D01*
X86486854Y-85442928D01*
X86417136Y-85556032D01*
X86397885Y-85587262D01*
X86395581Y-85594209D01*
X86352197Y-85725009D01*
X86342203Y-85755139D01*
X86331500Y-85859600D01*
X86331500Y-86860400D01*
X86331837Y-86863646D01*
X86331837Y-86863650D01*
X86334426Y-86888598D01*
X86342474Y-86966166D01*
X86344655Y-86972702D01*
X86344655Y-86972704D01*
X86352557Y-86996389D01*
X86398450Y-87133946D01*
X86491522Y-87284348D01*
X86616697Y-87409305D01*
X86622929Y-87413147D01*
X86622931Y-87413148D01*
X86659117Y-87435454D01*
X86706610Y-87488226D01*
X86719000Y-87542713D01*
X86719000Y-87908733D01*
X86718473Y-87919916D01*
X86716798Y-87927409D01*
X86717047Y-87935335D01*
X86717047Y-87935336D01*
X86718938Y-87995486D01*
X86719000Y-87999445D01*
X86719000Y-88027356D01*
X86719497Y-88031290D01*
X86719497Y-88031291D01*
X86719505Y-88031356D01*
X86720438Y-88043193D01*
X86721827Y-88087389D01*
X86724595Y-88096915D01*
X86727478Y-88106839D01*
X86731487Y-88126200D01*
X86734026Y-88146297D01*
X86736945Y-88153668D01*
X86736945Y-88153670D01*
X86750304Y-88187412D01*
X86754149Y-88198642D01*
X86766482Y-88241093D01*
X86770515Y-88247912D01*
X86770517Y-88247917D01*
X86776793Y-88258528D01*
X86785488Y-88276276D01*
X86792948Y-88295117D01*
X86797610Y-88301533D01*
X86797610Y-88301534D01*
X86818936Y-88330887D01*
X86825452Y-88340807D01*
X86837918Y-88361885D01*
X86847958Y-88378862D01*
X86862279Y-88393183D01*
X86875119Y-88408216D01*
X86887028Y-88424607D01*
X86893133Y-88429658D01*
X86893138Y-88429663D01*
X86921098Y-88452794D01*
X86929876Y-88460781D01*
X87129237Y-88660141D01*
X87317878Y-88848782D01*
X87351903Y-88911095D01*
X87354093Y-88924706D01*
X87371458Y-89089928D01*
X87430473Y-89271556D01*
X87525960Y-89436944D01*
X87530378Y-89441851D01*
X87530379Y-89441852D01*
X87649325Y-89573955D01*
X87653747Y-89578866D01*
X87752843Y-89650864D01*
X87792610Y-89679756D01*
X87808248Y-89691118D01*
X87814276Y-89693802D01*
X87814278Y-89693803D01*
X87976681Y-89766109D01*
X87982712Y-89768794D01*
X88076112Y-89788647D01*
X88163056Y-89807128D01*
X88163061Y-89807128D01*
X88169513Y-89808500D01*
X88360487Y-89808500D01*
X88366939Y-89807128D01*
X88366944Y-89807128D01*
X88453888Y-89788647D01*
X88547288Y-89768794D01*
X88553319Y-89766109D01*
X88715722Y-89693803D01*
X88715724Y-89693802D01*
X88721752Y-89691118D01*
X88737391Y-89679756D01*
X88864269Y-89587573D01*
X88876253Y-89578866D01*
X88877738Y-89577216D01*
X88883563Y-89574421D01*
X88895780Y-89557179D01*
X88999621Y-89441852D01*
X88999622Y-89441851D01*
X89004040Y-89436944D01*
X89099527Y-89271556D01*
X89143437Y-89136416D01*
X89183511Y-89077811D01*
X89248908Y-89050174D01*
X89289467Y-89052107D01*
X89433041Y-89082625D01*
X89433047Y-89082626D01*
X89437344Y-89083539D01*
X89437349Y-89083541D01*
X89439513Y-89084001D01*
X89439429Y-89084397D01*
X89501495Y-89109928D01*
X89542129Y-89168146D01*
X89544837Y-89239091D01*
X89511770Y-89297325D01*
X89142747Y-89666348D01*
X89134461Y-89673888D01*
X89127982Y-89678000D01*
X89122557Y-89683777D01*
X89081357Y-89727651D01*
X89078602Y-89730493D01*
X89078511Y-89730584D01*
X89068258Y-89736183D01*
X89067858Y-89737648D01*
X89058660Y-89750067D01*
X89058867Y-89750228D01*
X89058865Y-89750230D01*
X89056385Y-89753427D01*
X89048682Y-89762447D01*
X89018414Y-89794679D01*
X89014595Y-89801625D01*
X89014593Y-89801628D01*
X89008652Y-89812434D01*
X88997801Y-89828953D01*
X88985386Y-89844959D01*
X88982241Y-89852228D01*
X88982238Y-89852232D01*
X88967826Y-89885537D01*
X88962609Y-89896187D01*
X88941305Y-89934940D01*
X88939334Y-89942615D01*
X88939334Y-89942616D01*
X88936267Y-89954562D01*
X88929863Y-89973266D01*
X88921819Y-89991855D01*
X88920580Y-89999678D01*
X88920577Y-89999688D01*
X88914901Y-90035524D01*
X88912495Y-90047144D01*
X88901500Y-90089970D01*
X88901500Y-90110224D01*
X88899949Y-90129934D01*
X88896780Y-90149943D01*
X88897526Y-90157835D01*
X88900941Y-90193961D01*
X88901500Y-90205819D01*
X88901500Y-90726233D01*
X88900973Y-90737416D01*
X88899298Y-90744909D01*
X88899547Y-90752835D01*
X88899547Y-90752836D01*
X88901438Y-90812986D01*
X88901500Y-90816945D01*
X88901500Y-92642476D01*
X88881498Y-92710597D01*
X88869142Y-92726779D01*
X88795960Y-92808056D01*
X88765788Y-92860316D01*
X88736144Y-92911661D01*
X88700473Y-92973444D01*
X88641458Y-93155072D01*
X88640768Y-93161633D01*
X88640768Y-93161635D01*
X88625739Y-93304633D01*
X88621496Y-93345000D01*
X88622186Y-93351565D01*
X88635591Y-93479102D01*
X88641458Y-93534928D01*
X88700473Y-93716556D01*
X88795960Y-93881944D01*
X88800378Y-93886851D01*
X88800379Y-93886852D01*
X88844753Y-93936134D01*
X88923747Y-94023866D01*
X88982857Y-94066812D01*
X89049017Y-94114880D01*
X89078248Y-94136118D01*
X89084276Y-94138802D01*
X89084278Y-94138803D01*
X89210037Y-94194794D01*
X89252712Y-94213794D01*
X89346112Y-94233647D01*
X89433056Y-94252128D01*
X89433061Y-94252128D01*
X89439513Y-94253500D01*
X89630487Y-94253500D01*
X89636939Y-94252128D01*
X89636944Y-94252128D01*
X89723888Y-94233647D01*
X89817288Y-94213794D01*
X89859963Y-94194794D01*
X89985722Y-94138803D01*
X89985724Y-94138802D01*
X89991752Y-94136118D01*
X90020984Y-94114880D01*
X90087143Y-94066812D01*
X90146253Y-94023866D01*
X90225247Y-93936134D01*
X90269621Y-93886852D01*
X90269622Y-93886851D01*
X90274040Y-93881944D01*
X90369527Y-93716556D01*
X90428542Y-93534928D01*
X90434410Y-93479102D01*
X90447814Y-93351565D01*
X90448504Y-93345000D01*
X90444261Y-93304633D01*
X90429232Y-93161635D01*
X90429232Y-93161633D01*
X90428542Y-93155072D01*
X90369527Y-92973444D01*
X90333857Y-92911661D01*
X90304212Y-92860316D01*
X90274040Y-92808056D01*
X90200863Y-92726785D01*
X90170147Y-92662779D01*
X90168500Y-92642476D01*
X90168500Y-92491691D01*
X90188502Y-92423570D01*
X90242158Y-92377077D01*
X90314213Y-92367243D01*
X90348020Y-92372598D01*
X90359640Y-92375004D01*
X90394789Y-92384028D01*
X90402470Y-92386000D01*
X90422731Y-92386000D01*
X90442440Y-92387551D01*
X90462443Y-92390719D01*
X90470335Y-92389973D01*
X90475562Y-92389479D01*
X90506454Y-92386559D01*
X90518311Y-92386000D01*
X90570224Y-92386000D01*
X90638345Y-92406002D01*
X90684838Y-92459658D01*
X90695146Y-92495555D01*
X90702162Y-92548850D01*
X90708221Y-92563478D01*
X90752048Y-92669285D01*
X90763476Y-92696876D01*
X90768502Y-92703426D01*
X90848789Y-92808056D01*
X90861013Y-92823987D01*
X90867563Y-92829013D01*
X90867566Y-92829016D01*
X90909400Y-92861116D01*
X90988125Y-92921524D01*
X91109900Y-92971965D01*
X91127341Y-92979189D01*
X91136150Y-92982838D01*
X91144338Y-92983916D01*
X91251021Y-92997961D01*
X91255115Y-92998500D01*
X91394983Y-92998500D01*
X91534884Y-92998499D01*
X91538969Y-92997961D01*
X91538973Y-92997961D01*
X91645663Y-92983916D01*
X91645665Y-92983916D01*
X91653850Y-92982838D01*
X91672435Y-92975140D01*
X91743023Y-92967550D01*
X91768874Y-92975140D01*
X91778649Y-92979189D01*
X91794469Y-92983428D01*
X91827040Y-92987716D01*
X91841222Y-92985505D01*
X91845000Y-92972348D01*
X91845000Y-92950569D01*
X91865002Y-92882448D01*
X91894294Y-92850609D01*
X91928987Y-92823987D01*
X91945039Y-92803068D01*
X92002378Y-92761202D01*
X92073249Y-92756982D01*
X92135152Y-92791747D01*
X92144962Y-92803070D01*
X92155983Y-92817433D01*
X92155986Y-92817436D01*
X92161013Y-92823987D01*
X92167563Y-92829013D01*
X92195705Y-92850607D01*
X92237572Y-92907946D01*
X92245000Y-92950569D01*
X92245000Y-92971965D01*
X92249044Y-92985736D01*
X92262583Y-92987765D01*
X92295533Y-92983428D01*
X92311348Y-92979190D01*
X92321126Y-92975140D01*
X92391715Y-92967550D01*
X92417564Y-92975139D01*
X92436150Y-92982838D01*
X92444338Y-92983916D01*
X92551021Y-92997961D01*
X92555115Y-92998500D01*
X92607441Y-92998500D01*
X92675562Y-93018502D01*
X92722055Y-93072158D01*
X92732363Y-93108053D01*
X92736500Y-93139478D01*
X92736500Y-93139483D01*
X92740862Y-93172615D01*
X92752162Y-93258449D01*
X92813476Y-93406474D01*
X92818503Y-93413025D01*
X92818504Y-93413027D01*
X92886520Y-93501667D01*
X92886526Y-93501673D01*
X92911013Y-93533585D01*
X92917568Y-93538615D01*
X92936379Y-93553050D01*
X92948770Y-93563917D01*
X93470482Y-94085629D01*
X93504508Y-94147941D01*
X93507042Y-94171515D01*
X93506697Y-94174799D01*
X93507387Y-94181364D01*
X93525850Y-94357027D01*
X93526659Y-94364727D01*
X93585674Y-94546355D01*
X93588977Y-94552077D01*
X93588978Y-94552078D01*
X93615790Y-94598517D01*
X93681161Y-94711743D01*
X93685579Y-94716650D01*
X93685580Y-94716651D01*
X93804526Y-94848754D01*
X93808948Y-94853665D01*
X93963449Y-94965917D01*
X93969475Y-94968600D01*
X93969482Y-94968604D01*
X94010029Y-94986656D01*
X94064125Y-95032636D01*
X94084775Y-95100563D01*
X94065423Y-95168871D01*
X94047876Y-95190858D01*
X93031121Y-96207613D01*
X92968809Y-96241639D01*
X92925580Y-96243440D01*
X92838972Y-96232038D01*
X92838971Y-96232038D01*
X92834885Y-96231500D01*
X92695017Y-96231500D01*
X92555116Y-96231501D01*
X92551031Y-96232039D01*
X92551027Y-96232039D01*
X92444337Y-96246084D01*
X92444335Y-96246084D01*
X92436150Y-96247162D01*
X92417565Y-96254860D01*
X92346977Y-96262450D01*
X92321126Y-96254860D01*
X92311351Y-96250811D01*
X92295531Y-96246572D01*
X92262960Y-96242284D01*
X92248778Y-96244495D01*
X92245000Y-96257652D01*
X92245000Y-96279431D01*
X92224998Y-96347552D01*
X92195706Y-96379391D01*
X92161013Y-96406013D01*
X92155988Y-96412562D01*
X92144961Y-96426932D01*
X92087622Y-96468798D01*
X92016751Y-96473018D01*
X91954848Y-96438253D01*
X91945038Y-96426930D01*
X91934017Y-96412567D01*
X91934012Y-96412562D01*
X91928987Y-96406013D01*
X91894295Y-96379392D01*
X91852428Y-96322054D01*
X91845000Y-96279431D01*
X91845000Y-96258035D01*
X91840956Y-96244264D01*
X91827417Y-96242235D01*
X91794467Y-96246572D01*
X91778652Y-96250810D01*
X91768874Y-96254860D01*
X91698285Y-96262450D01*
X91672436Y-96254861D01*
X91653850Y-96247162D01*
X91633592Y-96244495D01*
X91538972Y-96232038D01*
X91538971Y-96232038D01*
X91534885Y-96231500D01*
X91395017Y-96231500D01*
X91255116Y-96231501D01*
X91251031Y-96232039D01*
X91251027Y-96232039D01*
X91144337Y-96246084D01*
X91144335Y-96246084D01*
X91136150Y-96247162D01*
X91094705Y-96264329D01*
X90995752Y-96305316D01*
X90995750Y-96305317D01*
X90988124Y-96308476D01*
X90861013Y-96406013D01*
X90855988Y-96412562D01*
X90855984Y-96412566D01*
X90844961Y-96426932D01*
X90763476Y-96533125D01*
X90702162Y-96681150D01*
X90701084Y-96689338D01*
X90689413Y-96777992D01*
X90686500Y-96800115D01*
X90686500Y-97237905D01*
X90666498Y-97306026D01*
X90653916Y-97321638D01*
X90654283Y-97321961D01*
X90651669Y-97324926D01*
X90648865Y-97327730D01*
X90646385Y-97330927D01*
X90638682Y-97339947D01*
X90608414Y-97372179D01*
X90604595Y-97379125D01*
X90604593Y-97379128D01*
X90598652Y-97389934D01*
X90587801Y-97406453D01*
X90575386Y-97422459D01*
X90572241Y-97429728D01*
X90572238Y-97429732D01*
X90557826Y-97463037D01*
X90552609Y-97473687D01*
X90531305Y-97512440D01*
X90529334Y-97520115D01*
X90529334Y-97520116D01*
X90526267Y-97532062D01*
X90519863Y-97550766D01*
X90511819Y-97569355D01*
X90510580Y-97577178D01*
X90510577Y-97577188D01*
X90504901Y-97613024D01*
X90502495Y-97624644D01*
X90491500Y-97667470D01*
X90491500Y-97687724D01*
X90489949Y-97707434D01*
X90486780Y-97727443D01*
X90487526Y-97735335D01*
X90490941Y-97771461D01*
X90491500Y-97783319D01*
X90491500Y-102305101D01*
X90471498Y-102373222D01*
X90431803Y-102412245D01*
X90400652Y-102431522D01*
X90275695Y-102556697D01*
X90182885Y-102707262D01*
X90127203Y-102875139D01*
X90116500Y-102979600D01*
X90116500Y-104030400D01*
X90127474Y-104136166D01*
X90183450Y-104303946D01*
X90276522Y-104454348D01*
X90401697Y-104579305D01*
X90407927Y-104583145D01*
X90431618Y-104597749D01*
X90479110Y-104650522D01*
X90491500Y-104705008D01*
X90491500Y-107425572D01*
X90471498Y-107493693D01*
X90437112Y-107527495D01*
X90437612Y-107528125D01*
X90431880Y-107532668D01*
X90425652Y-107536522D01*
X90300695Y-107661697D01*
X90296855Y-107667927D01*
X90296854Y-107667928D01*
X90235741Y-107767072D01*
X90207885Y-107812262D01*
X90205581Y-107819209D01*
X90162197Y-107950009D01*
X90152203Y-107980139D01*
X90141500Y-108084600D01*
X90141500Y-108983905D01*
X90121498Y-109052026D01*
X90067842Y-109098519D01*
X89997568Y-109108623D01*
X89932988Y-109079129D01*
X89926405Y-109073000D01*
X89600405Y-108747000D01*
X89566379Y-108684688D01*
X89563500Y-108657905D01*
X89563500Y-108084600D01*
X89558791Y-108039216D01*
X89553238Y-107985692D01*
X89553237Y-107985688D01*
X89552526Y-107978834D01*
X89496550Y-107811054D01*
X89403478Y-107660652D01*
X89278303Y-107535695D01*
X89265000Y-107527495D01*
X89133968Y-107446725D01*
X89133966Y-107446724D01*
X89127738Y-107442885D01*
X88967254Y-107389655D01*
X88966389Y-107389368D01*
X88966387Y-107389368D01*
X88959861Y-107387203D01*
X88953025Y-107386503D01*
X88953022Y-107386502D01*
X88909969Y-107382091D01*
X88855400Y-107376500D01*
X88229600Y-107376500D01*
X88226354Y-107376837D01*
X88226350Y-107376837D01*
X88130692Y-107386762D01*
X88130688Y-107386763D01*
X88123834Y-107387474D01*
X88117298Y-107389655D01*
X88117296Y-107389655D01*
X88010147Y-107425403D01*
X87956054Y-107443450D01*
X87805652Y-107536522D01*
X87800479Y-107541704D01*
X87719216Y-107623109D01*
X87656934Y-107657188D01*
X87586114Y-107652185D01*
X87541025Y-107623264D01*
X87458483Y-107540866D01*
X87453303Y-107535695D01*
X87440000Y-107527495D01*
X87308968Y-107446725D01*
X87308966Y-107446724D01*
X87302738Y-107442885D01*
X87142254Y-107389655D01*
X87141389Y-107389368D01*
X87141387Y-107389368D01*
X87134861Y-107387203D01*
X87128025Y-107386503D01*
X87128022Y-107386502D01*
X87084969Y-107382091D01*
X87030400Y-107376500D01*
X86457094Y-107376500D01*
X86388973Y-107356498D01*
X86367999Y-107339595D01*
X84760405Y-105732000D01*
X84726379Y-105669688D01*
X84723500Y-105642905D01*
X84723500Y-95921291D01*
X84743502Y-95853170D01*
X84797158Y-95806677D01*
X84835892Y-95796028D01*
X84848086Y-95794703D01*
X84875316Y-95791745D01*
X85011705Y-95740615D01*
X85128261Y-95653261D01*
X85185515Y-95576867D01*
X85242373Y-95534353D01*
X85313191Y-95529327D01*
X85356342Y-95547668D01*
X85518299Y-95655884D01*
X85528409Y-95661374D01*
X85717566Y-95742642D01*
X85728499Y-95746194D01*
X85818332Y-95766521D01*
X85832405Y-95765632D01*
X85836000Y-95756233D01*
X85836000Y-95755512D01*
X86344000Y-95755512D01*
X86347966Y-95769018D01*
X86361883Y-95771011D01*
X86372817Y-95768386D01*
X86567763Y-95702210D01*
X86578272Y-95697531D01*
X86757882Y-95596944D01*
X86767375Y-95590420D01*
X86925653Y-95458782D01*
X86933782Y-95450653D01*
X87065420Y-95292375D01*
X87071944Y-95282882D01*
X87172531Y-95103272D01*
X87177210Y-95092763D01*
X87243386Y-94897817D01*
X87246017Y-94886857D01*
X87244040Y-94872992D01*
X87230474Y-94869000D01*
X86362115Y-94869000D01*
X86346876Y-94873475D01*
X86345671Y-94874865D01*
X86344000Y-94882548D01*
X86344000Y-95755512D01*
X85836000Y-95755512D01*
X85836000Y-94342885D01*
X86344000Y-94342885D01*
X86348475Y-94358124D01*
X86349865Y-94359329D01*
X86357548Y-94361000D01*
X87229485Y-94361000D01*
X87243016Y-94357027D01*
X87244185Y-94348892D01*
X87200725Y-94194794D01*
X87196603Y-94184055D01*
X87105549Y-93999417D01*
X87099538Y-93989608D01*
X86976360Y-93824651D01*
X86968671Y-93816111D01*
X86817490Y-93676361D01*
X86808365Y-93669360D01*
X86634255Y-93559505D01*
X86624008Y-93554284D01*
X86432793Y-93477997D01*
X86421767Y-93474730D01*
X86361770Y-93462797D01*
X86348894Y-93463949D01*
X86344000Y-93479102D01*
X86344000Y-94342885D01*
X85836000Y-94342885D01*
X85836000Y-93476337D01*
X85832194Y-93463375D01*
X85817278Y-93461439D01*
X85788202Y-93466435D01*
X85777082Y-93469415D01*
X85583940Y-93540669D01*
X85573562Y-93545619D01*
X85396639Y-93650877D01*
X85387321Y-93657647D01*
X85369893Y-93672931D01*
X85305489Y-93702809D01*
X85235156Y-93693123D01*
X85185989Y-93653765D01*
X85133643Y-93583920D01*
X85133642Y-93583919D01*
X85128261Y-93576739D01*
X85011705Y-93489385D01*
X84875316Y-93438255D01*
X84813134Y-93431500D01*
X83366866Y-93431500D01*
X83304684Y-93438255D01*
X83168295Y-93489385D01*
X83051739Y-93576739D01*
X82964385Y-93693295D01*
X82913255Y-93829684D01*
X82906500Y-93891866D01*
X82906500Y-95338134D01*
X79883000Y-95338134D01*
X79883000Y-80772491D01*
X79903002Y-80704370D01*
X79956658Y-80657877D01*
X80026932Y-80647773D01*
X80079000Y-80667725D01*
X80224271Y-80764792D01*
X80229574Y-80767070D01*
X80229577Y-80767072D01*
X80266225Y-80782817D01*
X80417280Y-80847715D01*
X80517192Y-80870323D01*
X80616533Y-80892802D01*
X80616536Y-80892802D01*
X80622169Y-80894077D01*
X80627940Y-80894304D01*
X80627942Y-80894304D01*
X80692800Y-80896852D01*
X80832076Y-80902324D01*
X80937455Y-80887045D01*
X81034250Y-80873011D01*
X81034255Y-80873010D01*
X81039971Y-80872181D01*
X81045443Y-80870323D01*
X81045445Y-80870323D01*
X81233424Y-80806512D01*
X81238892Y-80804656D01*
X81422176Y-80702012D01*
X81583686Y-80567686D01*
X81718012Y-80406176D01*
X81820656Y-80222892D01*
X81850975Y-80133576D01*
X81886323Y-80029445D01*
X81886323Y-80029443D01*
X81888181Y-80023971D01*
X81889010Y-80018255D01*
X81889011Y-80018250D01*
X81917791Y-79819750D01*
X81918324Y-79816076D01*
X81919897Y-79756000D01*
X81900675Y-79546812D01*
X81843654Y-79344631D01*
X81829890Y-79316719D01*
X81753298Y-79161406D01*
X81750743Y-79156225D01*
X81625054Y-78987907D01*
X81470795Y-78845312D01*
X81465920Y-78842236D01*
X81461652Y-78838961D01*
X81419785Y-78781623D01*
X81415564Y-78710752D01*
X81450329Y-78648849D01*
X81513043Y-78615569D01*
X81538357Y-78613000D01*
X107438907Y-78613000D01*
X107507028Y-78633002D01*
G37*
%TD.AperFunction*%
%TA.AperFunction,Conductor*%
G36*
X95017564Y-98700139D02*
G01*
X95036150Y-98707838D01*
X95044338Y-98708916D01*
X95151021Y-98722961D01*
X95155115Y-98723500D01*
X95294983Y-98723500D01*
X95434884Y-98723499D01*
X95438969Y-98722961D01*
X95438973Y-98722961D01*
X95553850Y-98707838D01*
X95554147Y-98710096D01*
X95613281Y-98711499D01*
X95664020Y-98742424D01*
X97434595Y-100513000D01*
X97468621Y-100575312D01*
X97471500Y-100602095D01*
X97471500Y-102305101D01*
X97451498Y-102373222D01*
X97411803Y-102412245D01*
X97380652Y-102431522D01*
X97255695Y-102556697D01*
X97253094Y-102560916D01*
X97195970Y-102601417D01*
X97125047Y-102604649D01*
X97063635Y-102569024D01*
X97057078Y-102561470D01*
X97053478Y-102555652D01*
X96928303Y-102430695D01*
X96922072Y-102426854D01*
X96783968Y-102341725D01*
X96783966Y-102341724D01*
X96777738Y-102337885D01*
X96678568Y-102304992D01*
X96616389Y-102284368D01*
X96616387Y-102284368D01*
X96609861Y-102282203D01*
X96603025Y-102281503D01*
X96603022Y-102281502D01*
X96559969Y-102277091D01*
X96505400Y-102271500D01*
X95919594Y-102271500D01*
X95851473Y-102251498D01*
X95830499Y-102234595D01*
X94665405Y-101069500D01*
X94631379Y-101007188D01*
X94628500Y-100980405D01*
X94628500Y-98848999D01*
X94648502Y-98780878D01*
X94702158Y-98734385D01*
X94754500Y-98722999D01*
X94780724Y-98722999D01*
X94788935Y-98722461D01*
X94895533Y-98708428D01*
X94911348Y-98704190D01*
X94921126Y-98700140D01*
X94991715Y-98692550D01*
X95017564Y-98700139D01*
G37*
%TD.AperFunction*%
%TA.AperFunction,Conductor*%
G36*
X92038444Y-98557836D02*
G01*
X92089242Y-98607435D01*
X92100380Y-98633984D01*
X92108982Y-98663593D01*
X92113015Y-98670412D01*
X92113017Y-98670417D01*
X92119293Y-98681028D01*
X92127988Y-98698776D01*
X92135448Y-98717617D01*
X92140110Y-98724033D01*
X92140110Y-98724034D01*
X92161436Y-98753387D01*
X92167952Y-98763307D01*
X92178344Y-98780878D01*
X92190458Y-98801362D01*
X92204779Y-98815683D01*
X92217619Y-98830716D01*
X92229528Y-98847107D01*
X92235634Y-98852158D01*
X92263605Y-98875298D01*
X92272384Y-98883288D01*
X92354595Y-98965499D01*
X92388621Y-99027811D01*
X92391500Y-99054594D01*
X92391500Y-102305101D01*
X92371498Y-102373222D01*
X92331803Y-102412245D01*
X92300652Y-102431522D01*
X92175695Y-102556697D01*
X92173094Y-102560916D01*
X92115970Y-102601417D01*
X92045047Y-102604649D01*
X91983635Y-102569024D01*
X91977078Y-102561470D01*
X91973478Y-102555652D01*
X91848303Y-102430695D01*
X91818382Y-102412251D01*
X91770890Y-102359478D01*
X91758500Y-102304992D01*
X91758500Y-98831279D01*
X91778502Y-98763158D01*
X91832158Y-98716665D01*
X91837248Y-98715137D01*
X91840796Y-98711989D01*
X91845000Y-98697348D01*
X91845000Y-98675569D01*
X91865002Y-98607448D01*
X91894290Y-98575612D01*
X91902678Y-98569175D01*
X91968895Y-98543573D01*
X92038444Y-98557836D01*
G37*
%TD.AperFunction*%
%TA.AperFunction,Conductor*%
G36*
X91971112Y-88733958D02*
G01*
X92020714Y-88767701D01*
X92029136Y-88777055D01*
X92059853Y-88841060D01*
X92061500Y-88861365D01*
X92061500Y-90381001D01*
X92041498Y-90449122D01*
X91987842Y-90495615D01*
X91935500Y-90507001D01*
X91909276Y-90507001D01*
X91901065Y-90507539D01*
X91794467Y-90521572D01*
X91778652Y-90525810D01*
X91768874Y-90529860D01*
X91698285Y-90537450D01*
X91672436Y-90529861D01*
X91653850Y-90522162D01*
X91542777Y-90507539D01*
X91538972Y-90507038D01*
X91538971Y-90507038D01*
X91534885Y-90506500D01*
X91395017Y-90506500D01*
X91255116Y-90506501D01*
X91251031Y-90507039D01*
X91251027Y-90507039D01*
X91144337Y-90521084D01*
X91144335Y-90521084D01*
X91136150Y-90522162D01*
X91086820Y-90542595D01*
X90995752Y-90580316D01*
X90995750Y-90580317D01*
X90988124Y-90583476D01*
X90861013Y-90681013D01*
X90855987Y-90687563D01*
X90855984Y-90687566D01*
X90817214Y-90738093D01*
X90763476Y-90808125D01*
X90760316Y-90815755D01*
X90739147Y-90866861D01*
X90694599Y-90922142D01*
X90627236Y-90944563D01*
X90558444Y-90927005D01*
X90533643Y-90907738D01*
X90205405Y-90579500D01*
X90171379Y-90517188D01*
X90168500Y-90490405D01*
X90168500Y-90484594D01*
X90188502Y-90416473D01*
X90205405Y-90395499D01*
X91837985Y-88762919D01*
X91900297Y-88728893D01*
X91971112Y-88733958D01*
G37*
%TD.AperFunction*%
%TA.AperFunction,Conductor*%
G36*
X94828561Y-89759844D02*
G01*
X94945406Y-89844737D01*
X94950748Y-89848618D01*
X94956776Y-89851302D01*
X94956778Y-89851303D01*
X95103005Y-89916407D01*
X95125212Y-89926294D01*
X95202001Y-89942616D01*
X95305556Y-89964628D01*
X95305561Y-89964628D01*
X95312013Y-89966000D01*
X95367906Y-89966000D01*
X95436027Y-89986002D01*
X95457001Y-90002905D01*
X95713751Y-90259655D01*
X95747777Y-90321967D01*
X95742712Y-90392782D01*
X95713751Y-90437845D01*
X95664021Y-90487575D01*
X95601709Y-90521601D01*
X95554073Y-90520470D01*
X95553850Y-90522162D01*
X95438972Y-90507038D01*
X95438971Y-90507038D01*
X95434885Y-90506500D01*
X95295017Y-90506500D01*
X95155116Y-90506501D01*
X95151031Y-90507039D01*
X95151027Y-90507039D01*
X95044337Y-90521084D01*
X95044335Y-90521084D01*
X95036150Y-90522162D01*
X95017565Y-90529860D01*
X94946977Y-90537450D01*
X94921126Y-90529860D01*
X94911350Y-90525810D01*
X94895532Y-90521572D01*
X94788934Y-90507538D01*
X94780724Y-90507000D01*
X94754500Y-90507000D01*
X94686379Y-90486998D01*
X94639886Y-90433342D01*
X94628500Y-90381000D01*
X94628500Y-89861780D01*
X94648502Y-89793659D01*
X94702158Y-89747166D01*
X94772432Y-89737062D01*
X94828561Y-89759844D01*
G37*
%TD.AperFunction*%
%TD*%
M02*
