%TF.GenerationSoftware,KiCad,Pcbnew,(6.0.2)*%
%TF.CreationDate,2022-05-06T08:02:59-03:00*%
%TF.ProjectId,Nono_Circuito_SMD,4e6f6e6f-5f43-4697-9263-7569746f5f53,rev?*%
%TF.SameCoordinates,Original*%
%TF.FileFunction,Copper,L2,Bot*%
%TF.FilePolarity,Positive*%
%FSLAX46Y46*%
G04 Gerber Fmt 4.6, Leading zero omitted, Abs format (unit mm)*
G04 Created by KiCad (PCBNEW (6.0.2)) date 2022-05-06 08:02:59*
%MOMM*%
%LPD*%
G01*
G04 APERTURE LIST*
%TA.AperFunction,ComponentPad*%
%ADD10R,1.350000X1.350000*%
%TD*%
%TA.AperFunction,ComponentPad*%
%ADD11O,1.350000X1.350000*%
%TD*%
%TA.AperFunction,ViaPad*%
%ADD12C,0.800000*%
%TD*%
%TA.AperFunction,Conductor*%
%ADD13C,0.250000*%
%TD*%
%TA.AperFunction,Conductor*%
%ADD14C,0.200000*%
%TD*%
G04 APERTURE END LIST*
D10*
%TO.P,J2,1,Pin_1*%
%TO.N,Net-(C4-Pad2)*%
X100600000Y-96520000D03*
D11*
%TO.P,J2,2,Pin_2*%
%TO.N,GND*%
X102600000Y-96520000D03*
%TD*%
D10*
%TO.P,J3,1,Pin_1*%
%TO.N,+12V*%
X100235000Y-92075000D03*
D11*
%TO.P,J3,2,Pin_2*%
%TO.N,GND*%
X102235000Y-92075000D03*
%TO.P,J3,3,Pin_3*%
%TO.N,-12V*%
X104235000Y-92075000D03*
%TD*%
D10*
%TO.P,J1,1,Pin_1*%
%TO.N,Net-(J1-Pad1)*%
X84090000Y-94615000D03*
D11*
%TO.P,J1,2,Pin_2*%
%TO.N,GND*%
X86090000Y-94615000D03*
%TD*%
D12*
%TO.N,Net-(C1-Pad1)*%
X94488000Y-109220000D03*
X94488000Y-111760000D03*
%TO.N,Net-(C2-Pad1)*%
X99060000Y-83820000D03*
X95250000Y-84455000D03*
%TO.N,Net-(C2-Pad2)*%
X88265000Y-88900000D03*
X95407500Y-89057500D03*
%TO.N,Net-(C4-Pad1)*%
X92710000Y-88175500D03*
X89535000Y-88175500D03*
%TO.N,Net-(C4-Pad2)*%
X89535000Y-93345000D03*
X97790000Y-96520000D03*
%TO.N,GND*%
X95250000Y-90170000D03*
X102235000Y-89535000D03*
X95250000Y-99695000D03*
X92075000Y-99695000D03*
X88265000Y-90170000D03*
X91970500Y-90170000D03*
%TO.N,+12V*%
X95885000Y-93345000D03*
X98425000Y-92075000D03*
%TO.N,-12V*%
X94420201Y-94174799D03*
X104775000Y-94615000D03*
%TD*%
D13*
%TO.N,Net-(C1-Pad1)*%
X94488000Y-111760000D02*
X94488000Y-109220000D01*
%TO.N,Net-(C2-Pad1)*%
X99060000Y-83820000D02*
X95885000Y-83820000D01*
X95885000Y-83820000D02*
X95250000Y-84455000D01*
%TO.N,Net-(C2-Pad2)*%
X88265000Y-88900000D02*
X95250000Y-88900000D01*
X95250000Y-88900000D02*
X95407500Y-89057500D01*
%TO.N,Net-(C4-Pad1)*%
X89535000Y-88175500D02*
X92710000Y-88175500D01*
%TO.N,Net-(C4-Pad2)*%
X94615000Y-93345000D02*
X89535000Y-93345000D01*
X97790000Y-96520000D02*
X94615000Y-93345000D01*
%TO.N,GND*%
X92075000Y-99695000D02*
X95250000Y-99695000D01*
X101600000Y-90170000D02*
X95250000Y-90170000D01*
X88810489Y-93044897D02*
X91685386Y-90170000D01*
X102235000Y-89535000D02*
X101600000Y-90170000D01*
X91685386Y-90170000D02*
X95250000Y-90170000D01*
X92075000Y-99695000D02*
X88810489Y-96430489D01*
X88265000Y-90170000D02*
X91970500Y-90170000D01*
X88810489Y-96430489D02*
X88810489Y-93044897D01*
%TO.N,+12V*%
X95885000Y-93345000D02*
X97155000Y-93345000D01*
X97155000Y-93345000D02*
X98425000Y-92075000D01*
D14*
%TO.N,-12V*%
X97739913Y-97494511D02*
X104435489Y-97494511D01*
X104775000Y-97155000D02*
X104775000Y-94615000D01*
X104435489Y-97494511D02*
X104775000Y-97155000D01*
X94420201Y-94174799D02*
X97739913Y-97494511D01*
%TD*%
%TA.AperFunction,Conductor*%
%TO.N,GND*%
G36*
X107507028Y-78633002D02*
G01*
X107553521Y-78686658D01*
X107563625Y-78756932D01*
X107534131Y-78821512D01*
X107521985Y-78833732D01*
X107508781Y-78845312D01*
X107371345Y-78965840D01*
X107241293Y-79130810D01*
X107238604Y-79135921D01*
X107238602Y-79135924D01*
X107188970Y-79230259D01*
X107143481Y-79316719D01*
X107081187Y-79517339D01*
X107056496Y-79725952D01*
X107058466Y-79756000D01*
X107070236Y-79935571D01*
X107121945Y-80139176D01*
X107209892Y-80329948D01*
X107331132Y-80501499D01*
X107481605Y-80648084D01*
X107486401Y-80651289D01*
X107486404Y-80651291D01*
X107562314Y-80702012D01*
X107656271Y-80764792D01*
X107661574Y-80767070D01*
X107661577Y-80767072D01*
X107742486Y-80801833D01*
X107849280Y-80847715D01*
X107949192Y-80870323D01*
X108048533Y-80892802D01*
X108048536Y-80892802D01*
X108054169Y-80894077D01*
X108059940Y-80894304D01*
X108059942Y-80894304D01*
X108124800Y-80896852D01*
X108264076Y-80902324D01*
X108369455Y-80887045D01*
X108466250Y-80873011D01*
X108466255Y-80873010D01*
X108471971Y-80872181D01*
X108477443Y-80870323D01*
X108477445Y-80870323D01*
X108665424Y-80806512D01*
X108670892Y-80804656D01*
X108854176Y-80702012D01*
X109015686Y-80567686D01*
X109074126Y-80497419D01*
X109124126Y-80437301D01*
X109183063Y-80397717D01*
X109254045Y-80396281D01*
X109314536Y-80433448D01*
X109345329Y-80497419D01*
X109347000Y-80517870D01*
X109347000Y-112114979D01*
X109326998Y-112183100D01*
X109273342Y-112229593D01*
X109203068Y-112239697D01*
X109174312Y-112232009D01*
X109038020Y-112177635D01*
X108847402Y-112139718D01*
X108837654Y-112137779D01*
X108837653Y-112137779D01*
X108831988Y-112136652D01*
X108826214Y-112136576D01*
X108826210Y-112136576D01*
X108719656Y-112135182D01*
X108621937Y-112133903D01*
X108616240Y-112134882D01*
X108616239Y-112134882D01*
X108420599Y-112168499D01*
X108414902Y-112169478D01*
X108217818Y-112242186D01*
X108212857Y-112245138D01*
X108212856Y-112245138D01*
X108042251Y-112346637D01*
X108042248Y-112346639D01*
X108037283Y-112349593D01*
X107879345Y-112488101D01*
X107749293Y-112653071D01*
X107651481Y-112838980D01*
X107589187Y-113039600D01*
X107564496Y-113248213D01*
X107566466Y-113278261D01*
X107578236Y-113457832D01*
X107615591Y-113604916D01*
X107623227Y-113634985D01*
X107620609Y-113705933D01*
X107580048Y-113764203D01*
X107514424Y-113791294D01*
X107501104Y-113792000D01*
X81855535Y-113792000D01*
X81787414Y-113771998D01*
X81740921Y-113718342D01*
X81730817Y-113648068D01*
X81736222Y-113625499D01*
X81759322Y-113557449D01*
X81759323Y-113557444D01*
X81761181Y-113551971D01*
X81762010Y-113546255D01*
X81762011Y-113546250D01*
X81790791Y-113347750D01*
X81791324Y-113344076D01*
X81792897Y-113284000D01*
X81773675Y-113074812D01*
X81765363Y-113045337D01*
X81718222Y-112878190D01*
X81718221Y-112878188D01*
X81716654Y-112872631D01*
X81702781Y-112844498D01*
X81626298Y-112689406D01*
X81623743Y-112684225D01*
X81498054Y-112515907D01*
X81418912Y-112442749D01*
X81348036Y-112377232D01*
X81348034Y-112377230D01*
X81343795Y-112373312D01*
X81338912Y-112370231D01*
X81171014Y-112264295D01*
X81166134Y-112261216D01*
X80971020Y-112183374D01*
X80764988Y-112142391D01*
X80759214Y-112142315D01*
X80759210Y-112142315D01*
X80652656Y-112140921D01*
X80554937Y-112139642D01*
X80549240Y-112140621D01*
X80549239Y-112140621D01*
X80353599Y-112174238D01*
X80347902Y-112175217D01*
X80150818Y-112247925D01*
X80145857Y-112250877D01*
X80145856Y-112250877D01*
X80073423Y-112293970D01*
X80004652Y-112311610D01*
X79937262Y-112289269D01*
X79892649Y-112234041D01*
X79883000Y-112185685D01*
X79883000Y-111760000D01*
X93574496Y-111760000D01*
X93594458Y-111949928D01*
X93653473Y-112131556D01*
X93656776Y-112137278D01*
X93656777Y-112137279D01*
X93683232Y-112183100D01*
X93748960Y-112296944D01*
X93753378Y-112301851D01*
X93753379Y-112301852D01*
X93870454Y-112431877D01*
X93876747Y-112438866D01*
X94031248Y-112551118D01*
X94037276Y-112553802D01*
X94037278Y-112553803D01*
X94199681Y-112626109D01*
X94205712Y-112628794D01*
X94298581Y-112648534D01*
X94386056Y-112667128D01*
X94386061Y-112667128D01*
X94392513Y-112668500D01*
X94583487Y-112668500D01*
X94589939Y-112667128D01*
X94589944Y-112667128D01*
X94677419Y-112648534D01*
X94770288Y-112628794D01*
X94776319Y-112626109D01*
X94938722Y-112553803D01*
X94938724Y-112553802D01*
X94944752Y-112551118D01*
X95099253Y-112438866D01*
X95105546Y-112431877D01*
X95222621Y-112301852D01*
X95222622Y-112301851D01*
X95227040Y-112296944D01*
X95292768Y-112183100D01*
X95319223Y-112137279D01*
X95319224Y-112137278D01*
X95322527Y-112131556D01*
X95381542Y-111949928D01*
X95401504Y-111760000D01*
X95381542Y-111570072D01*
X95322527Y-111388444D01*
X95227040Y-111223056D01*
X95153863Y-111141785D01*
X95123147Y-111077779D01*
X95121500Y-111057476D01*
X95121500Y-109922524D01*
X95141502Y-109854403D01*
X95153858Y-109838221D01*
X95227040Y-109756944D01*
X95322527Y-109591556D01*
X95381542Y-109409928D01*
X95401504Y-109220000D01*
X95381542Y-109030072D01*
X95322527Y-108848444D01*
X95227040Y-108683056D01*
X95099253Y-108541134D01*
X94944752Y-108428882D01*
X94938724Y-108426198D01*
X94938722Y-108426197D01*
X94776319Y-108353891D01*
X94776318Y-108353891D01*
X94770288Y-108351206D01*
X94676888Y-108331353D01*
X94589944Y-108312872D01*
X94589939Y-108312872D01*
X94583487Y-108311500D01*
X94392513Y-108311500D01*
X94386061Y-108312872D01*
X94386056Y-108312872D01*
X94299112Y-108331353D01*
X94205712Y-108351206D01*
X94199682Y-108353891D01*
X94199681Y-108353891D01*
X94037278Y-108426197D01*
X94037276Y-108426198D01*
X94031248Y-108428882D01*
X93876747Y-108541134D01*
X93748960Y-108683056D01*
X93653473Y-108848444D01*
X93594458Y-109030072D01*
X93574496Y-109220000D01*
X93594458Y-109409928D01*
X93653473Y-109591556D01*
X93748960Y-109756944D01*
X93822137Y-109838215D01*
X93852853Y-109902221D01*
X93854500Y-109922524D01*
X93854500Y-111057476D01*
X93834498Y-111125597D01*
X93822142Y-111141779D01*
X93748960Y-111223056D01*
X93653473Y-111388444D01*
X93594458Y-111570072D01*
X93574496Y-111760000D01*
X79883000Y-111760000D01*
X79883000Y-95338134D01*
X82906500Y-95338134D01*
X82913255Y-95400316D01*
X82964385Y-95536705D01*
X83051739Y-95653261D01*
X83168295Y-95740615D01*
X83304684Y-95791745D01*
X83366866Y-95798500D01*
X84813134Y-95798500D01*
X84875316Y-95791745D01*
X85011705Y-95740615D01*
X85128261Y-95653261D01*
X85185515Y-95576867D01*
X85242373Y-95534353D01*
X85313191Y-95529327D01*
X85356342Y-95547668D01*
X85518299Y-95655884D01*
X85528409Y-95661374D01*
X85717566Y-95742642D01*
X85728499Y-95746194D01*
X85818332Y-95766521D01*
X85832405Y-95765632D01*
X85836000Y-95756233D01*
X85836000Y-95755512D01*
X86344000Y-95755512D01*
X86347966Y-95769018D01*
X86361883Y-95771011D01*
X86372817Y-95768386D01*
X86567763Y-95702210D01*
X86578272Y-95697531D01*
X86757882Y-95596944D01*
X86767375Y-95590420D01*
X86925653Y-95458782D01*
X86933782Y-95450653D01*
X87065420Y-95292375D01*
X87071944Y-95282882D01*
X87172531Y-95103272D01*
X87177210Y-95092763D01*
X87243386Y-94897817D01*
X87246017Y-94886857D01*
X87244040Y-94872992D01*
X87230474Y-94869000D01*
X86362115Y-94869000D01*
X86346876Y-94873475D01*
X86345671Y-94874865D01*
X86344000Y-94882548D01*
X86344000Y-95755512D01*
X85836000Y-95755512D01*
X85836000Y-94342885D01*
X86344000Y-94342885D01*
X86348475Y-94358124D01*
X86349865Y-94359329D01*
X86357548Y-94361000D01*
X87229485Y-94361000D01*
X87243016Y-94357027D01*
X87244185Y-94348892D01*
X87200725Y-94194794D01*
X87196603Y-94184055D01*
X87105549Y-93999417D01*
X87099538Y-93989608D01*
X86976360Y-93824651D01*
X86968671Y-93816111D01*
X86817490Y-93676361D01*
X86808365Y-93669360D01*
X86634255Y-93559505D01*
X86624008Y-93554284D01*
X86432793Y-93477997D01*
X86421767Y-93474730D01*
X86361770Y-93462797D01*
X86348894Y-93463949D01*
X86344000Y-93479102D01*
X86344000Y-94342885D01*
X85836000Y-94342885D01*
X85836000Y-93476337D01*
X85832194Y-93463375D01*
X85817278Y-93461439D01*
X85788202Y-93466435D01*
X85777082Y-93469415D01*
X85583940Y-93540669D01*
X85573562Y-93545619D01*
X85396639Y-93650877D01*
X85387321Y-93657647D01*
X85369893Y-93672931D01*
X85305489Y-93702809D01*
X85235156Y-93693123D01*
X85185989Y-93653765D01*
X85133643Y-93583920D01*
X85133642Y-93583919D01*
X85128261Y-93576739D01*
X85011705Y-93489385D01*
X84875316Y-93438255D01*
X84813134Y-93431500D01*
X83366866Y-93431500D01*
X83304684Y-93438255D01*
X83168295Y-93489385D01*
X83051739Y-93576739D01*
X82964385Y-93693295D01*
X82913255Y-93829684D01*
X82906500Y-93891866D01*
X82906500Y-95338134D01*
X79883000Y-95338134D01*
X79883000Y-93345000D01*
X88621496Y-93345000D01*
X88622186Y-93351565D01*
X88635591Y-93479102D01*
X88641458Y-93534928D01*
X88700473Y-93716556D01*
X88795960Y-93881944D01*
X88800378Y-93886851D01*
X88800379Y-93886852D01*
X88882452Y-93978003D01*
X88923747Y-94023866D01*
X88981906Y-94066121D01*
X89052857Y-94117670D01*
X89078248Y-94136118D01*
X89084276Y-94138802D01*
X89084278Y-94138803D01*
X89246681Y-94211109D01*
X89252712Y-94213794D01*
X89346112Y-94233647D01*
X89433056Y-94252128D01*
X89433061Y-94252128D01*
X89439513Y-94253500D01*
X89630487Y-94253500D01*
X89636939Y-94252128D01*
X89636944Y-94252128D01*
X89723888Y-94233647D01*
X89817288Y-94213794D01*
X89823319Y-94211109D01*
X89985722Y-94138803D01*
X89985724Y-94138802D01*
X89991752Y-94136118D01*
X90017144Y-94117670D01*
X90124671Y-94039546D01*
X90146253Y-94023866D01*
X90150668Y-94018963D01*
X90155580Y-94014540D01*
X90156705Y-94015789D01*
X90210014Y-93982949D01*
X90243200Y-93978500D01*
X93387391Y-93978500D01*
X93455512Y-93998502D01*
X93502005Y-94052158D01*
X93512701Y-94117670D01*
X93506697Y-94174799D01*
X93507387Y-94181364D01*
X93525850Y-94357027D01*
X93526659Y-94364727D01*
X93585674Y-94546355D01*
X93681161Y-94711743D01*
X93808948Y-94853665D01*
X93963449Y-94965917D01*
X93969477Y-94968601D01*
X93969479Y-94968602D01*
X94009805Y-94986556D01*
X94137913Y-95043593D01*
X94231313Y-95063446D01*
X94318257Y-95081927D01*
X94318262Y-95081927D01*
X94324714Y-95083299D01*
X94415962Y-95083299D01*
X94484083Y-95103301D01*
X94505057Y-95120204D01*
X97275598Y-97890745D01*
X97286465Y-97903136D01*
X97305926Y-97928498D01*
X97312476Y-97933524D01*
X97337834Y-97952982D01*
X97337850Y-97952996D01*
X97387218Y-97990877D01*
X97433037Y-98026035D01*
X97581062Y-98087349D01*
X97589249Y-98088427D01*
X97589250Y-98088427D01*
X97600455Y-98089902D01*
X97631651Y-98094009D01*
X97700028Y-98103011D01*
X97700031Y-98103011D01*
X97700039Y-98103012D01*
X97731724Y-98107183D01*
X97739913Y-98108261D01*
X97748102Y-98107183D01*
X97771606Y-98104089D01*
X97788051Y-98103011D01*
X104387353Y-98103011D01*
X104403796Y-98104089D01*
X104435489Y-98108261D01*
X104443678Y-98107183D01*
X104475363Y-98103012D01*
X104475373Y-98103011D01*
X104475374Y-98103011D01*
X104475390Y-98103009D01*
X104574946Y-98089902D01*
X104586153Y-98088427D01*
X104586155Y-98088426D01*
X104594340Y-98087349D01*
X104742365Y-98026035D01*
X104837551Y-97952996D01*
X104837558Y-97952991D01*
X104837564Y-97952985D01*
X104862923Y-97933526D01*
X104869476Y-97928498D01*
X104874506Y-97921943D01*
X104888941Y-97903132D01*
X104899808Y-97890741D01*
X105171234Y-97619315D01*
X105183625Y-97608448D01*
X105202437Y-97594013D01*
X105208987Y-97588987D01*
X105233474Y-97557075D01*
X105233480Y-97557069D01*
X105301496Y-97468429D01*
X105301497Y-97468427D01*
X105306524Y-97461876D01*
X105367838Y-97313851D01*
X105370391Y-97294457D01*
X105383500Y-97194885D01*
X105383500Y-97194880D01*
X105388750Y-97155000D01*
X105384578Y-97123307D01*
X105383500Y-97106864D01*
X105383500Y-95345290D01*
X105403502Y-95277169D01*
X105415864Y-95260980D01*
X105509621Y-95156852D01*
X105509622Y-95156851D01*
X105514040Y-95151944D01*
X105609527Y-94986556D01*
X105668542Y-94804928D01*
X105688504Y-94615000D01*
X105668542Y-94425072D01*
X105609527Y-94243444D01*
X105514040Y-94078056D01*
X105490722Y-94052158D01*
X105390675Y-93941045D01*
X105390674Y-93941044D01*
X105386253Y-93936134D01*
X105231752Y-93823882D01*
X105225724Y-93821198D01*
X105225722Y-93821197D01*
X105063319Y-93748891D01*
X105063318Y-93748891D01*
X105057288Y-93746206D01*
X104944721Y-93722279D01*
X104876944Y-93707872D01*
X104876939Y-93707872D01*
X104870487Y-93706500D01*
X104679513Y-93706500D01*
X104673061Y-93707872D01*
X104673056Y-93707872D01*
X104605279Y-93722279D01*
X104492712Y-93746206D01*
X104486682Y-93748891D01*
X104486681Y-93748891D01*
X104324278Y-93821197D01*
X104324276Y-93821198D01*
X104318248Y-93823882D01*
X104163747Y-93936134D01*
X104159326Y-93941044D01*
X104159325Y-93941045D01*
X104059279Y-94052158D01*
X104035960Y-94078056D01*
X103940473Y-94243444D01*
X103881458Y-94425072D01*
X103861496Y-94615000D01*
X103881458Y-94804928D01*
X103940473Y-94986556D01*
X104035960Y-95151944D01*
X104040378Y-95156851D01*
X104040379Y-95156852D01*
X104134136Y-95260980D01*
X104164854Y-95324987D01*
X104166500Y-95345290D01*
X104166500Y-96760011D01*
X104146498Y-96828132D01*
X104092842Y-96874625D01*
X104040500Y-96886011D01*
X103878751Y-96886011D01*
X103810630Y-96866009D01*
X103764137Y-96812353D01*
X103754072Y-96778001D01*
X103740474Y-96774000D01*
X102472000Y-96774000D01*
X102403879Y-96753998D01*
X102357386Y-96700342D01*
X102346000Y-96648000D01*
X102346000Y-96247885D01*
X102854000Y-96247885D01*
X102858475Y-96263124D01*
X102859865Y-96264329D01*
X102867548Y-96266000D01*
X103739485Y-96266000D01*
X103753016Y-96262027D01*
X103754185Y-96253892D01*
X103710725Y-96099794D01*
X103706603Y-96089055D01*
X103615549Y-95904417D01*
X103609538Y-95894608D01*
X103486360Y-95729651D01*
X103478671Y-95721111D01*
X103327490Y-95581361D01*
X103318365Y-95574360D01*
X103144255Y-95464505D01*
X103134008Y-95459284D01*
X102942793Y-95382997D01*
X102931767Y-95379730D01*
X102871770Y-95367797D01*
X102858894Y-95368949D01*
X102854000Y-95384102D01*
X102854000Y-96247885D01*
X102346000Y-96247885D01*
X102346000Y-95381337D01*
X102342194Y-95368375D01*
X102327278Y-95366439D01*
X102298202Y-95371435D01*
X102287082Y-95374415D01*
X102093940Y-95445669D01*
X102083562Y-95450619D01*
X101906639Y-95555877D01*
X101897321Y-95562647D01*
X101879893Y-95577931D01*
X101815489Y-95607809D01*
X101745156Y-95598123D01*
X101695989Y-95558765D01*
X101643643Y-95488920D01*
X101643642Y-95488919D01*
X101638261Y-95481739D01*
X101521705Y-95394385D01*
X101385316Y-95343255D01*
X101323134Y-95336500D01*
X99876866Y-95336500D01*
X99814684Y-95343255D01*
X99678295Y-95394385D01*
X99561739Y-95481739D01*
X99474385Y-95598295D01*
X99423255Y-95734684D01*
X99416500Y-95796866D01*
X99416500Y-96760011D01*
X99396498Y-96828132D01*
X99342842Y-96874625D01*
X99290500Y-96886011D01*
X98799753Y-96886011D01*
X98731632Y-96866009D01*
X98685139Y-96812353D01*
X98675035Y-96742079D01*
X98679920Y-96721074D01*
X98681503Y-96716202D01*
X98683542Y-96709928D01*
X98703504Y-96520000D01*
X98683542Y-96330072D01*
X98624527Y-96148444D01*
X98529040Y-95983056D01*
X98401253Y-95841134D01*
X98270580Y-95746194D01*
X98252094Y-95732763D01*
X98252093Y-95732762D01*
X98246752Y-95728882D01*
X98240724Y-95726198D01*
X98240722Y-95726197D01*
X98078319Y-95653891D01*
X98078318Y-95653891D01*
X98072288Y-95651206D01*
X97978888Y-95631353D01*
X97891944Y-95612872D01*
X97891939Y-95612872D01*
X97885487Y-95611500D01*
X97829594Y-95611500D01*
X97761473Y-95591498D01*
X97740499Y-95574595D01*
X96423058Y-94257153D01*
X96389032Y-94194841D01*
X96394097Y-94124025D01*
X96438092Y-94066123D01*
X96496253Y-94023866D01*
X96500668Y-94018962D01*
X96505580Y-94014540D01*
X96506705Y-94015789D01*
X96560014Y-93982949D01*
X96593200Y-93978500D01*
X97076233Y-93978500D01*
X97087416Y-93979027D01*
X97094909Y-93980702D01*
X97102835Y-93980453D01*
X97102836Y-93980453D01*
X97162986Y-93978562D01*
X97166945Y-93978500D01*
X97194856Y-93978500D01*
X97198791Y-93978003D01*
X97198856Y-93977995D01*
X97210693Y-93977062D01*
X97242951Y-93976048D01*
X97246970Y-93975922D01*
X97254889Y-93975673D01*
X97274343Y-93970021D01*
X97293700Y-93966013D01*
X97305930Y-93964468D01*
X97305931Y-93964468D01*
X97313797Y-93963474D01*
X97321168Y-93960555D01*
X97321170Y-93960555D01*
X97354912Y-93947196D01*
X97366142Y-93943351D01*
X97400983Y-93933229D01*
X97400984Y-93933229D01*
X97408593Y-93931018D01*
X97415412Y-93926985D01*
X97415417Y-93926983D01*
X97426028Y-93920707D01*
X97443776Y-93912012D01*
X97462617Y-93904552D01*
X97498387Y-93878564D01*
X97508307Y-93872048D01*
X97539535Y-93853580D01*
X97539538Y-93853578D01*
X97546362Y-93849542D01*
X97560683Y-93835221D01*
X97575717Y-93822380D01*
X97577345Y-93821197D01*
X97592107Y-93810472D01*
X97620298Y-93776395D01*
X97628288Y-93767616D01*
X98375499Y-93020405D01*
X98437811Y-92986379D01*
X98464594Y-92983500D01*
X98520487Y-92983500D01*
X98526939Y-92982128D01*
X98526944Y-92982128D01*
X98613887Y-92963647D01*
X98707288Y-92943794D01*
X98762669Y-92919137D01*
X98875722Y-92868803D01*
X98875724Y-92868802D01*
X98881752Y-92866118D01*
X98888251Y-92861396D01*
X98889034Y-92861116D01*
X98892811Y-92858936D01*
X98893210Y-92859627D01*
X98955119Y-92837538D01*
X99024270Y-92853619D01*
X99073750Y-92904534D01*
X99080293Y-92919103D01*
X99090064Y-92945166D01*
X99109385Y-92996705D01*
X99196739Y-93113261D01*
X99313295Y-93200615D01*
X99449684Y-93251745D01*
X99511866Y-93258500D01*
X100958134Y-93258500D01*
X101020316Y-93251745D01*
X101156705Y-93200615D01*
X101273261Y-93113261D01*
X101330515Y-93036867D01*
X101387373Y-92994353D01*
X101458191Y-92989327D01*
X101501342Y-93007668D01*
X101663299Y-93115884D01*
X101673409Y-93121374D01*
X101862566Y-93202642D01*
X101873499Y-93206194D01*
X101963332Y-93226521D01*
X101977405Y-93225632D01*
X101981000Y-93216233D01*
X101981000Y-93215512D01*
X102489000Y-93215512D01*
X102492966Y-93229018D01*
X102506883Y-93231011D01*
X102517817Y-93228386D01*
X102712763Y-93162210D01*
X102723272Y-93157531D01*
X102902882Y-93056944D01*
X102912375Y-93050420D01*
X103070653Y-92918782D01*
X103078782Y-92910653D01*
X103134923Y-92843151D01*
X103193861Y-92803567D01*
X103264843Y-92802131D01*
X103327607Y-92841888D01*
X103327868Y-92842193D01*
X103331204Y-92846914D01*
X103335346Y-92850949D01*
X103353674Y-92868803D01*
X103487009Y-92998692D01*
X103667863Y-93119536D01*
X103673171Y-93121817D01*
X103673172Y-93121817D01*
X103862409Y-93203119D01*
X103862412Y-93203120D01*
X103867712Y-93205397D01*
X103873342Y-93206671D01*
X103980908Y-93231011D01*
X104079860Y-93253402D01*
X104085631Y-93253629D01*
X104085633Y-93253629D01*
X104158620Y-93256496D01*
X104297205Y-93261941D01*
X104512466Y-93230730D01*
X104517930Y-93228875D01*
X104517935Y-93228874D01*
X104712963Y-93162671D01*
X104712968Y-93162669D01*
X104718435Y-93160813D01*
X104724296Y-93157531D01*
X104816166Y-93106081D01*
X104908213Y-93054532D01*
X105075446Y-92915446D01*
X105214532Y-92748213D01*
X105320813Y-92558435D01*
X105322669Y-92552968D01*
X105322671Y-92552963D01*
X105388874Y-92357935D01*
X105388875Y-92357930D01*
X105390730Y-92352466D01*
X105421941Y-92137205D01*
X105423570Y-92075000D01*
X105403667Y-91858400D01*
X105344626Y-91649055D01*
X105248423Y-91453974D01*
X105131320Y-91297153D01*
X105121733Y-91284315D01*
X105121732Y-91284314D01*
X105118280Y-91279691D01*
X105041689Y-91208891D01*
X104962796Y-91135963D01*
X104962793Y-91135961D01*
X104958556Y-91132044D01*
X104774599Y-91015976D01*
X104572572Y-90935376D01*
X104359239Y-90892941D01*
X104353464Y-90892865D01*
X104353460Y-90892865D01*
X104244419Y-90891438D01*
X104141746Y-90890094D01*
X104136049Y-90891073D01*
X104136048Y-90891073D01*
X103933065Y-90925952D01*
X103933062Y-90925953D01*
X103927375Y-90926930D01*
X103723307Y-91002214D01*
X103536376Y-91113427D01*
X103372842Y-91256842D01*
X103369270Y-91261373D01*
X103334688Y-91305240D01*
X103276807Y-91346353D01*
X103205887Y-91349647D01*
X103144444Y-91314075D01*
X103134780Y-91302622D01*
X103121364Y-91284655D01*
X103113671Y-91276111D01*
X102962490Y-91136361D01*
X102953365Y-91129360D01*
X102779255Y-91019505D01*
X102769008Y-91014284D01*
X102577793Y-90937997D01*
X102566767Y-90934730D01*
X102506770Y-90922797D01*
X102493894Y-90923949D01*
X102489000Y-90939102D01*
X102489000Y-93215512D01*
X101981000Y-93215512D01*
X101981000Y-90936337D01*
X101977194Y-90923375D01*
X101962278Y-90921439D01*
X101933202Y-90926435D01*
X101922082Y-90929415D01*
X101728940Y-91000669D01*
X101718562Y-91005619D01*
X101541639Y-91110877D01*
X101532321Y-91117647D01*
X101514893Y-91132931D01*
X101450489Y-91162809D01*
X101380156Y-91153123D01*
X101330989Y-91113765D01*
X101278643Y-91043920D01*
X101278642Y-91043919D01*
X101273261Y-91036739D01*
X101156705Y-90949385D01*
X101020316Y-90898255D01*
X100958134Y-90891500D01*
X99511866Y-90891500D01*
X99449684Y-90898255D01*
X99313295Y-90949385D01*
X99196739Y-91036739D01*
X99109385Y-91153295D01*
X99106233Y-91161703D01*
X99080293Y-91230897D01*
X99037651Y-91287661D01*
X98971090Y-91312361D01*
X98901741Y-91297153D01*
X98888251Y-91288604D01*
X98881752Y-91283882D01*
X98875724Y-91281198D01*
X98875722Y-91281197D01*
X98713319Y-91208891D01*
X98713318Y-91208891D01*
X98707288Y-91206206D01*
X98613887Y-91186353D01*
X98526944Y-91167872D01*
X98526939Y-91167872D01*
X98520487Y-91166500D01*
X98329513Y-91166500D01*
X98323061Y-91167872D01*
X98323056Y-91167872D01*
X98236113Y-91186353D01*
X98142712Y-91206206D01*
X98136682Y-91208891D01*
X98136681Y-91208891D01*
X97974278Y-91281197D01*
X97974276Y-91281198D01*
X97968248Y-91283882D01*
X97962907Y-91287762D01*
X97962906Y-91287763D01*
X97960262Y-91289684D01*
X97813747Y-91396134D01*
X97809326Y-91401044D01*
X97809325Y-91401045D01*
X97798500Y-91413068D01*
X97685960Y-91538056D01*
X97590473Y-91703444D01*
X97531458Y-91885072D01*
X97530768Y-91891633D01*
X97530768Y-91891635D01*
X97514093Y-92050292D01*
X97487080Y-92115949D01*
X97477878Y-92126217D01*
X96929500Y-92674595D01*
X96867188Y-92708621D01*
X96840405Y-92711500D01*
X96593200Y-92711500D01*
X96525079Y-92691498D01*
X96505853Y-92675157D01*
X96505580Y-92675460D01*
X96500668Y-92671037D01*
X96496253Y-92666134D01*
X96341752Y-92553882D01*
X96335724Y-92551198D01*
X96335722Y-92551197D01*
X96173319Y-92478891D01*
X96173318Y-92478891D01*
X96167288Y-92476206D01*
X96073887Y-92456353D01*
X95986944Y-92437872D01*
X95986939Y-92437872D01*
X95980487Y-92436500D01*
X95789513Y-92436500D01*
X95783061Y-92437872D01*
X95783056Y-92437872D01*
X95696113Y-92456353D01*
X95602712Y-92476206D01*
X95596682Y-92478891D01*
X95596681Y-92478891D01*
X95434278Y-92551197D01*
X95434276Y-92551198D01*
X95428248Y-92553882D01*
X95273747Y-92666134D01*
X95173179Y-92777826D01*
X95148573Y-92805154D01*
X95088127Y-92842393D01*
X95017143Y-92841041D01*
X94990698Y-92827725D01*
X94990320Y-92828413D01*
X94972566Y-92818652D01*
X94956047Y-92807801D01*
X94948737Y-92802131D01*
X94940041Y-92795386D01*
X94932772Y-92792241D01*
X94932768Y-92792238D01*
X94899463Y-92777826D01*
X94888813Y-92772609D01*
X94850060Y-92751305D01*
X94830437Y-92746267D01*
X94811734Y-92739863D01*
X94800420Y-92734967D01*
X94800419Y-92734967D01*
X94793145Y-92731819D01*
X94785322Y-92730580D01*
X94785312Y-92730577D01*
X94749476Y-92724901D01*
X94737856Y-92722495D01*
X94702711Y-92713472D01*
X94702710Y-92713472D01*
X94695030Y-92711500D01*
X94674776Y-92711500D01*
X94655065Y-92709949D01*
X94646681Y-92708621D01*
X94635057Y-92706780D01*
X94627165Y-92707526D01*
X94591039Y-92710941D01*
X94579181Y-92711500D01*
X90243200Y-92711500D01*
X90175079Y-92691498D01*
X90155853Y-92675157D01*
X90155580Y-92675460D01*
X90150668Y-92671037D01*
X90146253Y-92666134D01*
X89991752Y-92553882D01*
X89985724Y-92551198D01*
X89985722Y-92551197D01*
X89823319Y-92478891D01*
X89823318Y-92478891D01*
X89817288Y-92476206D01*
X89723887Y-92456353D01*
X89636944Y-92437872D01*
X89636939Y-92437872D01*
X89630487Y-92436500D01*
X89439513Y-92436500D01*
X89433061Y-92437872D01*
X89433056Y-92437872D01*
X89346113Y-92456353D01*
X89252712Y-92476206D01*
X89246682Y-92478891D01*
X89246681Y-92478891D01*
X89084278Y-92551197D01*
X89084276Y-92551198D01*
X89078248Y-92553882D01*
X88923747Y-92666134D01*
X88919329Y-92671041D01*
X88919325Y-92671045D01*
X88810203Y-92792238D01*
X88795960Y-92808056D01*
X88700473Y-92973444D01*
X88641458Y-93155072D01*
X88640768Y-93161633D01*
X88640768Y-93161635D01*
X88633419Y-93231558D01*
X88621496Y-93345000D01*
X79883000Y-93345000D01*
X79883000Y-88900000D01*
X87351496Y-88900000D01*
X87371458Y-89089928D01*
X87430473Y-89271556D01*
X87525960Y-89436944D01*
X87653747Y-89578866D01*
X87808248Y-89691118D01*
X87814276Y-89693802D01*
X87814278Y-89693803D01*
X87976681Y-89766109D01*
X87982712Y-89768794D01*
X88076112Y-89788647D01*
X88163056Y-89807128D01*
X88163061Y-89807128D01*
X88169513Y-89808500D01*
X88360487Y-89808500D01*
X88366939Y-89807128D01*
X88366944Y-89807128D01*
X88453888Y-89788647D01*
X88547288Y-89768794D01*
X88553319Y-89766109D01*
X88715722Y-89693803D01*
X88715724Y-89693802D01*
X88721752Y-89691118D01*
X88876253Y-89578866D01*
X88880668Y-89573963D01*
X88885580Y-89569540D01*
X88886705Y-89570789D01*
X88940014Y-89537949D01*
X88973200Y-89533500D01*
X94560835Y-89533500D01*
X94628956Y-89553502D01*
X94662771Y-89585439D01*
X94665157Y-89588723D01*
X94668460Y-89594444D01*
X94672881Y-89599354D01*
X94755506Y-89691118D01*
X94796247Y-89736366D01*
X94950748Y-89848618D01*
X94956776Y-89851302D01*
X94956778Y-89851303D01*
X95119181Y-89923609D01*
X95125212Y-89926294D01*
X95218612Y-89946147D01*
X95305556Y-89964628D01*
X95305561Y-89964628D01*
X95312013Y-89966000D01*
X95502987Y-89966000D01*
X95509439Y-89964628D01*
X95509444Y-89964628D01*
X95596388Y-89946147D01*
X95689788Y-89926294D01*
X95695819Y-89923609D01*
X95858222Y-89851303D01*
X95858224Y-89851302D01*
X95864252Y-89848618D01*
X96018753Y-89736366D01*
X96057077Y-89693803D01*
X96142121Y-89599352D01*
X96142122Y-89599351D01*
X96146540Y-89594444D01*
X96242027Y-89429056D01*
X96301042Y-89247428D01*
X96321004Y-89057500D01*
X96301042Y-88867572D01*
X96242027Y-88685944D01*
X96146540Y-88520556D01*
X96018753Y-88378634D01*
X95864252Y-88266382D01*
X95858224Y-88263698D01*
X95858222Y-88263697D01*
X95695819Y-88191391D01*
X95695818Y-88191391D01*
X95689788Y-88188706D01*
X95596388Y-88168853D01*
X95509444Y-88150372D01*
X95509439Y-88150372D01*
X95502987Y-88149000D01*
X95312013Y-88149000D01*
X95305561Y-88150372D01*
X95305556Y-88150372D01*
X95218612Y-88168853D01*
X95125212Y-88188706D01*
X95119182Y-88191391D01*
X95119181Y-88191391D01*
X94974949Y-88255607D01*
X94923700Y-88266500D01*
X93746520Y-88266500D01*
X93678399Y-88246498D01*
X93631906Y-88192842D01*
X93621210Y-88153671D01*
X93604232Y-87992135D01*
X93604232Y-87992133D01*
X93603542Y-87985572D01*
X93544527Y-87803944D01*
X93449040Y-87638556D01*
X93321253Y-87496634D01*
X93166752Y-87384382D01*
X93160724Y-87381698D01*
X93160722Y-87381697D01*
X92998319Y-87309391D01*
X92998318Y-87309391D01*
X92992288Y-87306706D01*
X92898887Y-87286853D01*
X92811944Y-87268372D01*
X92811939Y-87268372D01*
X92805487Y-87267000D01*
X92614513Y-87267000D01*
X92608061Y-87268372D01*
X92608056Y-87268372D01*
X92521113Y-87286853D01*
X92427712Y-87306706D01*
X92421682Y-87309391D01*
X92421681Y-87309391D01*
X92259278Y-87381697D01*
X92259276Y-87381698D01*
X92253248Y-87384382D01*
X92098747Y-87496634D01*
X92094332Y-87501537D01*
X92089420Y-87505960D01*
X92088295Y-87504711D01*
X92034986Y-87537551D01*
X92001800Y-87542000D01*
X90243200Y-87542000D01*
X90175079Y-87521998D01*
X90155853Y-87505657D01*
X90155580Y-87505960D01*
X90150668Y-87501537D01*
X90146253Y-87496634D01*
X89991752Y-87384382D01*
X89985724Y-87381698D01*
X89985722Y-87381697D01*
X89823319Y-87309391D01*
X89823318Y-87309391D01*
X89817288Y-87306706D01*
X89723887Y-87286853D01*
X89636944Y-87268372D01*
X89636939Y-87268372D01*
X89630487Y-87267000D01*
X89439513Y-87267000D01*
X89433061Y-87268372D01*
X89433056Y-87268372D01*
X89346113Y-87286853D01*
X89252712Y-87306706D01*
X89246682Y-87309391D01*
X89246681Y-87309391D01*
X89084278Y-87381697D01*
X89084276Y-87381698D01*
X89078248Y-87384382D01*
X88923747Y-87496634D01*
X88795960Y-87638556D01*
X88700473Y-87803944D01*
X88698432Y-87810226D01*
X88656563Y-87939084D01*
X88616489Y-87997689D01*
X88551092Y-88025326D01*
X88510533Y-88023393D01*
X88366953Y-87992873D01*
X88366940Y-87992872D01*
X88360487Y-87991500D01*
X88169513Y-87991500D01*
X88163061Y-87992872D01*
X88163056Y-87992872D01*
X88076113Y-88011353D01*
X87982712Y-88031206D01*
X87976682Y-88033891D01*
X87976681Y-88033891D01*
X87814278Y-88106197D01*
X87814276Y-88106198D01*
X87808248Y-88108882D01*
X87653747Y-88221134D01*
X87649326Y-88226044D01*
X87649325Y-88226045D01*
X87613006Y-88266382D01*
X87525960Y-88363056D01*
X87430473Y-88528444D01*
X87371458Y-88710072D01*
X87351496Y-88900000D01*
X79883000Y-88900000D01*
X79883000Y-84455000D01*
X94336496Y-84455000D01*
X94337186Y-84461565D01*
X94353187Y-84613803D01*
X94356458Y-84644928D01*
X94415473Y-84826556D01*
X94510960Y-84991944D01*
X94638747Y-85133866D01*
X94793248Y-85246118D01*
X94799276Y-85248802D01*
X94799278Y-85248803D01*
X94961681Y-85321109D01*
X94967712Y-85323794D01*
X95061112Y-85343647D01*
X95148056Y-85362128D01*
X95148061Y-85362128D01*
X95154513Y-85363500D01*
X95345487Y-85363500D01*
X95351939Y-85362128D01*
X95351944Y-85362128D01*
X95438888Y-85343647D01*
X95532288Y-85323794D01*
X95538319Y-85321109D01*
X95700722Y-85248803D01*
X95700724Y-85248802D01*
X95706752Y-85246118D01*
X95861253Y-85133866D01*
X95989040Y-84991944D01*
X96084527Y-84826556D01*
X96143542Y-84644928D01*
X96146814Y-84613803D01*
X96151803Y-84566329D01*
X96178816Y-84500673D01*
X96237038Y-84460043D01*
X96277113Y-84453500D01*
X98351800Y-84453500D01*
X98419921Y-84473502D01*
X98439147Y-84489843D01*
X98439420Y-84489540D01*
X98444332Y-84493963D01*
X98448747Y-84498866D01*
X98603248Y-84611118D01*
X98609276Y-84613802D01*
X98609278Y-84613803D01*
X98771681Y-84686109D01*
X98777712Y-84688794D01*
X98871113Y-84708647D01*
X98958056Y-84727128D01*
X98958061Y-84727128D01*
X98964513Y-84728500D01*
X99155487Y-84728500D01*
X99161939Y-84727128D01*
X99161944Y-84727128D01*
X99248887Y-84708647D01*
X99342288Y-84688794D01*
X99348319Y-84686109D01*
X99510722Y-84613803D01*
X99510724Y-84613802D01*
X99516752Y-84611118D01*
X99671253Y-84498866D01*
X99799040Y-84356944D01*
X99894527Y-84191556D01*
X99953542Y-84009928D01*
X99973504Y-83820000D01*
X99968485Y-83772251D01*
X99954232Y-83636635D01*
X99954232Y-83636633D01*
X99953542Y-83630072D01*
X99894527Y-83448444D01*
X99799040Y-83283056D01*
X99782881Y-83265109D01*
X99675675Y-83146045D01*
X99675674Y-83146044D01*
X99671253Y-83141134D01*
X99516752Y-83028882D01*
X99510724Y-83026198D01*
X99510722Y-83026197D01*
X99348319Y-82953891D01*
X99348318Y-82953891D01*
X99342288Y-82951206D01*
X99248888Y-82931353D01*
X99161944Y-82912872D01*
X99161939Y-82912872D01*
X99155487Y-82911500D01*
X98964513Y-82911500D01*
X98958061Y-82912872D01*
X98958056Y-82912872D01*
X98871112Y-82931353D01*
X98777712Y-82951206D01*
X98771682Y-82953891D01*
X98771681Y-82953891D01*
X98609278Y-83026197D01*
X98609276Y-83026198D01*
X98603248Y-83028882D01*
X98448747Y-83141134D01*
X98444332Y-83146037D01*
X98439420Y-83150460D01*
X98438295Y-83149211D01*
X98384986Y-83182051D01*
X98351800Y-83186500D01*
X95963768Y-83186500D01*
X95952585Y-83185973D01*
X95945092Y-83184298D01*
X95937166Y-83184547D01*
X95937165Y-83184547D01*
X95877002Y-83186438D01*
X95873044Y-83186500D01*
X95845144Y-83186500D01*
X95841154Y-83187004D01*
X95829320Y-83187936D01*
X95785111Y-83189326D01*
X95777495Y-83191539D01*
X95777493Y-83191539D01*
X95765652Y-83194979D01*
X95746293Y-83198988D01*
X95744983Y-83199154D01*
X95726203Y-83201526D01*
X95718837Y-83204442D01*
X95718831Y-83204444D01*
X95685098Y-83217800D01*
X95673868Y-83221645D01*
X95639017Y-83231770D01*
X95631407Y-83233981D01*
X95624584Y-83238016D01*
X95613966Y-83244295D01*
X95596213Y-83252992D01*
X95588568Y-83256019D01*
X95577383Y-83260448D01*
X95570968Y-83265109D01*
X95541612Y-83286437D01*
X95531695Y-83292951D01*
X95493638Y-83315458D01*
X95479317Y-83329779D01*
X95464284Y-83342619D01*
X95447893Y-83354528D01*
X95442840Y-83360636D01*
X95419708Y-83388598D01*
X95411718Y-83397378D01*
X95299501Y-83509595D01*
X95237189Y-83543621D01*
X95210406Y-83546500D01*
X95154513Y-83546500D01*
X95148061Y-83547872D01*
X95148056Y-83547872D01*
X95061112Y-83566353D01*
X94967712Y-83586206D01*
X94961682Y-83588891D01*
X94961681Y-83588891D01*
X94799278Y-83661197D01*
X94799276Y-83661198D01*
X94793248Y-83663882D01*
X94638747Y-83776134D01*
X94510960Y-83918056D01*
X94415473Y-84083444D01*
X94356458Y-84265072D01*
X94336496Y-84455000D01*
X79883000Y-84455000D01*
X79883000Y-80772491D01*
X79903002Y-80704370D01*
X79956658Y-80657877D01*
X80026932Y-80647773D01*
X80079000Y-80667725D01*
X80224271Y-80764792D01*
X80229574Y-80767070D01*
X80229577Y-80767072D01*
X80310486Y-80801833D01*
X80417280Y-80847715D01*
X80517192Y-80870323D01*
X80616533Y-80892802D01*
X80616536Y-80892802D01*
X80622169Y-80894077D01*
X80627940Y-80894304D01*
X80627942Y-80894304D01*
X80692800Y-80896852D01*
X80832076Y-80902324D01*
X80937455Y-80887045D01*
X81034250Y-80873011D01*
X81034255Y-80873010D01*
X81039971Y-80872181D01*
X81045443Y-80870323D01*
X81045445Y-80870323D01*
X81233424Y-80806512D01*
X81238892Y-80804656D01*
X81422176Y-80702012D01*
X81583686Y-80567686D01*
X81718012Y-80406176D01*
X81820656Y-80222892D01*
X81888181Y-80023971D01*
X81889010Y-80018255D01*
X81889011Y-80018250D01*
X81917791Y-79819750D01*
X81918324Y-79816076D01*
X81919897Y-79756000D01*
X81900675Y-79546812D01*
X81843654Y-79344631D01*
X81829890Y-79316719D01*
X81753298Y-79161406D01*
X81750743Y-79156225D01*
X81625054Y-78987907D01*
X81470795Y-78845312D01*
X81465920Y-78842236D01*
X81461652Y-78838961D01*
X81419785Y-78781623D01*
X81415564Y-78710752D01*
X81450329Y-78648849D01*
X81513043Y-78615569D01*
X81538357Y-78613000D01*
X107438907Y-78613000D01*
X107507028Y-78633002D01*
G37*
%TD.AperFunction*%
%TD*%
M02*
